<svg xmlns="http://www.w3.org/2000/svg" xmlns:xlink="http://www.w3.org/1999/xlink" version="1.1" id="Laag_1" x="0px" y="0px" viewBox="0 0 113.4 113.4" style="enable-background:new 0 0 113.4 113.4;" xml:space="preserve" width="396"  height="396" >
<style type="text/css">
	.st0{fill:none;}
	.st1{fill:#FFFFFF;}
</style>
<rect width="113.4" height="113.4"/>
<g id="Kader_00000178171358270535445000000005773912356808317360_">
	<g id="Kader_00000165213131019966170980000014832610136848349061_">
		<g id="Kader">
			<rect x="14.2" y="14.2" class="st0" width="85" height="85"/>
		</g>
	</g>
</g>
<g>
	<path class="st1" d="M38.2,49.7c0,1,0.1,1.9,0.3,2.5s0.5,1.3,0.9,2c0.1,0.2,0.2,0.5,0.2,0.7c0,0.3-0.2,0.6-0.5,0.8L37.2,57   c-0.3,0.2-0.5,0.3-0.7,0.3c-0.3,0-0.6-0.1-0.8-0.4c-0.4-0.4-0.7-0.9-1-1.3c-0.3-0.5-0.6-1-0.9-1.7c-2.2,2.6-5,3.9-8.3,3.9   c-2.4,0-4.3-0.7-5.7-2c-1.4-1.4-2.1-3.2-2.1-5.4c0-2.4,0.8-4.4,2.6-5.8c1.7-1.5,4-2.2,6.9-2.2c1,0,2,0.1,3,0.2s2.1,0.4,3.3,0.6V41   c0-2.1-0.5-3.6-1.3-4.5c-0.9-0.9-2.4-1.3-4.6-1.3c-1,0-2,0.1-3.1,0.4s-2.1,0.6-3.1,1c-0.5,0.2-0.8,0.3-1,0.4c-0.2,0-0.3,0-0.4,0   c-0.4,0-0.6-0.3-0.6-0.9v-1.4c0-0.5,0.1-0.8,0.2-1s0.4-0.4,0.8-0.6c1-0.5,2.2-0.9,3.6-1.3c1.4-0.4,2.9-0.5,4.4-0.5   c3.4,0,5.8,0.8,7.4,2.3s2.3,3.8,2.3,7L38.2,49.7L38.2,49.7z M26.7,54c0.9,0,1.9-0.2,2.9-0.5s1.9-1,2.7-1.8c0.5-0.5,0.8-1.1,1-1.8   s0.3-1.5,0.3-2.5v-1.2c-0.8-0.2-1.7-0.4-2.6-0.5s-1.8-0.2-2.7-0.2c-1.9,0-3.3,0.4-4.2,1.1c-0.9,0.8-1.4,1.8-1.4,3.3   c0,1.3,0.3,2.3,1,3C24.4,53.7,25.4,54,26.7,54z M49.4,57.1c-0.5,0-0.8-0.1-1.1-0.3c-0.2-0.2-0.4-0.6-0.6-1.1l-6.6-21.9   c-0.2-0.6-0.3-0.9-0.3-1.1c0-0.5,0.2-0.7,0.7-0.7h2.8c0.5,0,0.9,0.1,1.1,0.3c0.2,0.2,0.4,0.6,0.6,1.1l4.7,18.7l4.4-18.7   c0.1-0.6,0.3-0.9,0.5-1.1s0.6-0.3,1.1-0.3H59c0.5,0,0.9,0.1,1.1,0.3c0.2,0.2,0.4,0.6,0.5,1.1l4.5,18.9L70,33.4   c0.2-0.6,0.4-0.9,0.6-1.1c0.2-0.2,0.6-0.3,1.1-0.3h2.6c0.5,0,0.7,0.2,0.7,0.7c0,0.1,0,0.3-0.1,0.5c0,0.2-0.1,0.4-0.2,0.7L68,55.7   c-0.2,0.6-0.4,0.9-0.6,1.1c-0.2,0.2-0.6,0.3-1.1,0.3h-2.4c-0.5,0-0.9-0.1-1.1-0.3c-0.2-0.2-0.4-0.6-0.5-1.1l-4.4-18.2l-4.4,18.2   c-0.1,0.6-0.3,0.9-0.5,1.1c-0.2,0.2-0.6,0.3-1.1,0.3H49.4z M85.7,57.9c-1.5,0-2.9-0.2-4.4-0.5s-2.5-0.7-3.3-1.1   c-0.5-0.3-0.8-0.5-0.9-0.8s-0.2-0.5-0.2-0.8v-1.4c0-0.6,0.2-0.9,0.7-0.9c0.2,0,0.3,0,0.5,0.1s0.4,0.2,0.7,0.3c1,0.4,2,0.8,3.1,1   s2.2,0.3,3.4,0.3c1.8,0,3.2-0.3,4.1-0.9c1-0.6,1.5-1.5,1.5-2.7c0-0.8-0.3-1.4-0.8-2c-0.5-0.5-1.5-1-2.9-1.5l-4.1-1.3   c-2.1-0.7-3.6-1.6-4.5-2.9c-0.9-1.2-1.4-2.6-1.4-4.1c0-1.2,0.3-2.2,0.8-3.1c0.5-0.9,1.2-1.7,2-2.3c0.8-0.7,1.8-1.1,2.9-1.5   c1.1-0.3,2.3-0.5,3.6-0.5c0.6,0,1.3,0,1.9,0.1c0.7,0.1,1.2,0.2,1.8,0.3c0.6,0.1,1.1,0.3,1.6,0.5c0.5,0.2,0.9,0.3,1.2,0.5   c0.4,0.2,0.7,0.5,0.8,0.7c0.2,0.2,0.3,0.5,0.3,0.9v1.3c0,0.6-0.2,0.9-0.7,0.9c-0.2,0-0.6-0.1-1.1-0.3c-1.6-0.7-3.4-1.1-5.4-1.1   c-1.6,0-2.9,0.3-3.8,0.8S82,37.3,82,38.4c0,0.8,0.3,1.5,0.8,2c0.6,0.5,1.6,1.1,3.1,1.6l4,1.3c2,0.7,3.5,1.6,4.4,2.7s1.3,2.5,1.3,4   c0,1.2-0.3,2.3-0.7,3.3c-0.5,1-1.2,1.8-2.1,2.5s-1.9,1.2-3.1,1.6C88.5,57.7,87.1,57.9,85.7,57.9z"/>
	<path class="st1" d="M91,71.6c-9.3,6.9-22.8,10.5-34.4,10.5c-16.3,0-31-6-42-16c-0.9-0.8-0.1-1.9,1-1.2c12,7,26.8,11.2,42.1,11.2   c10.3,0,21.7-2.1,32.1-6.6C91.2,68.7,92.6,70.5,91,71.6z M94.9,67.2c-1.2-1.5-7.9-0.7-10.9-0.4c-0.9,0.1-1-0.7-0.2-1.3   c5.3-3.7,14.1-2.7,15.1-1.4c1,1.3-0.3,10-5.3,14.2c-0.8,0.7-1.5,0.3-1.2-0.5C93.6,75,96.1,68.7,94.9,67.2z"/>
</g>
</svg>