<svg width="32" height="32" viewBox="0 0 32 32" fill="none" xmlns="http://www.w3.org/2000/svg">
<rect width="32" height="32" fill="black"/>
<path d="M9.08 23.32C8.52 23.32 8 23.2333 7.52 23.06C7.05333 22.9 6.63333 22.6667 6.26 22.36C6.20667 22.3067 6.15333 22.2467 6.1 22.18C6.06 22.1133 6.02667 22.04 6 21.96C5.93333 21.6933 5.88667 21.3467 5.86 20.92C5.84667 20.4933 5.82667 20.14 5.8 19.86C5.8 19.7667 5.84 19.7 5.92 19.66C6 19.6067 6.09333 19.58 6.2 19.58C6.26667 19.58 6.33333 19.6 6.4 19.64C6.46667 19.6667 6.50667 19.72 6.52 19.8C6.78667 20.8267 7.18 21.56 7.7 22C8.23333 22.44 8.78667 22.66 9.36 22.66C9.82667 22.66 10.24 22.56 10.6 22.36C10.96 22.16 11.24 21.88 11.44 21.52C11.6533 21.1467 11.76 20.7133 11.76 20.22C11.76 19.6733 11.6667 19.2333 11.48 18.9C11.3067 18.5533 11.0533 18.2533 10.72 18C10.3867 17.7467 9.98 17.4733 9.5 17.18C8.98 16.8467 8.46667 16.5133 7.96 16.18C7.45333 15.8333 7.03333 15.44 6.7 15C6.36667 14.5467 6.2 14 6.2 13.36C6.2 12.68 6.35333 12.0667 6.66 11.52C6.96667 10.9733 7.42667 10.54 8.04 10.22C8.66667 9.88667 9.44667 9.72 10.38 9.72C10.86 9.72 11.2733 9.77333 11.62 9.88C11.98 9.97333 12.2667 10.0667 12.48 10.16C12.5867 10.2 12.6733 10.2667 12.74 10.36C12.82 10.4533 12.8733 10.5533 12.9 10.66C12.98 10.94 13.0667 11.26 13.16 11.62C13.2533 11.98 13.3 12.32 13.3 12.64C13.3 12.7867 13.2 12.86 13 12.86C12.88 12.86 12.76 12.8333 12.64 12.78C12.5333 12.7267 12.4667 12.66 12.44 12.58C12.16 11.8733 11.8333 11.3333 11.46 10.96C11.0867 10.5867 10.6133 10.4 10.04 10.4C9.64 10.4 9.26667 10.4733 8.92 10.62C8.57333 10.7667 8.28667 11.0067 8.06 11.34C7.84667 11.6733 7.74 12.12 7.74 12.68C7.74 13.08 7.86667 13.4467 8.12 13.78C8.38667 14.1 8.73333 14.4067 9.16 14.7C9.58667 14.9933 10.0467 15.2933 10.54 15.6C11.0067 15.88 11.46 16.1867 11.9 16.52C12.3533 16.8533 12.72 17.2533 13 17.72C13.2933 18.1733 13.44 18.7333 13.44 19.4C13.44 20.1867 13.26 20.88 12.9 21.48C12.54 22.0667 12.0333 22.52 11.38 22.84C10.7267 23.16 9.96 23.32 9.08 23.32ZM18.5769 23.42C18.5235 23.42 18.4569 23.3133 18.3769 23.1C18.2969 22.9 18.2435 22.7533 18.2169 22.66C18.1235 22.4333 18.0369 22.2 17.9569 21.96C17.8769 21.7067 17.7969 21.4733 17.7169 21.26C17.4235 20.4333 17.1035 19.6267 16.7569 18.84C16.4235 18.04 16.0969 17.2333 15.7769 16.42C15.6835 16.18 15.5369 15.9667 15.3369 15.78C15.1502 15.58 14.9569 15.4533 14.7569 15.4C14.6502 15.36 14.5635 15.32 14.4969 15.28C14.4302 15.24 14.3969 15.1733 14.3969 15.08C14.3969 15 14.4435 14.9533 14.5369 14.94C14.6435 14.9133 14.7302 14.9 14.7969 14.9C15.0635 14.9 15.2569 14.9067 15.3769 14.92C15.4969 14.9333 15.6169 14.9533 15.7369 14.98C15.8569 14.9933 16.0302 15 16.2569 15C16.4969 15 16.6769 14.9933 16.7969 14.98C16.9169 14.9533 17.0435 14.9333 17.1769 14.92C17.3102 14.9067 17.5035 14.9 17.7569 14.9C17.8235 14.9 17.9035 14.9133 17.9969 14.94C18.1035 14.9533 18.1569 15 18.1569 15.08C18.1569 15.1733 18.1102 15.2467 18.0169 15.3C17.9235 15.3533 17.8169 15.4 17.6969 15.44C17.5635 15.4933 17.4635 15.6 17.3969 15.76C17.3302 15.9067 17.2969 16.0733 17.2969 16.26C17.2969 16.3533 17.3035 16.4467 17.3169 16.54C17.3302 16.6333 17.3502 16.72 17.3769 16.8L18.9569 21C18.9702 21.0133 18.9769 21.02 18.9769 21.02C18.9902 21.02 19.0035 21.0133 19.0169 21L20.5369 17.1C20.5902 16.9667 20.6302 16.8267 20.6569 16.68C20.6835 16.52 20.6969 16.3867 20.6969 16.28C20.6969 16.0133 20.6569 15.8267 20.5769 15.72C20.4969 15.6 20.3635 15.5067 20.1769 15.44C20.0035 15.3733 19.8835 15.32 19.8169 15.28C19.7502 15.24 19.7169 15.1733 19.7169 15.08C19.7169 15 19.7569 14.9533 19.8369 14.94C19.9302 14.9133 20.0235 14.9 20.1169 14.9C20.2635 14.9 20.4569 14.92 20.6969 14.96C20.9369 14.9867 21.2302 15 21.5769 15C21.9235 15 22.1569 14.9867 22.2769 14.96C22.4102 14.92 22.5702 14.9 22.7569 14.9C22.8635 14.9 22.9569 14.9133 23.0369 14.94C23.1169 14.9533 23.1569 15 23.1569 15.08C23.1569 15.2267 23.0035 15.3467 22.6969 15.44C22.4969 15.4933 22.2769 15.6467 22.0369 15.9C21.7969 16.1533 21.6035 16.4467 21.4569 16.78L19.8969 20.54C19.8702 20.5933 19.8169 20.7267 19.7369 20.94C19.6569 21.14 19.5702 21.3667 19.4769 21.62C19.3835 21.86 19.3035 22.0733 19.2369 22.26C19.1702 22.4333 19.1369 22.52 19.1369 22.52C19.1369 22.52 19.1102 22.5867 19.0569 22.72C19.0035 22.84 18.9435 22.9667 18.8769 23.1C18.8102 23.2467 18.7502 23.3533 18.6969 23.42H18.5769ZM23.9602 23.28C23.6668 23.28 23.4068 23.1733 23.1802 22.96C22.9668 22.7333 22.8602 22.4733 22.8602 22.18C22.8602 21.8733 22.9668 21.6133 23.1802 21.4C23.4068 21.1867 23.6668 21.08 23.9602 21.08C24.2668 21.08 24.5268 21.1867 24.7402 21.4C24.9535 21.6133 25.0602 21.8733 25.0602 22.18C25.0602 22.4733 24.9535 22.7333 24.7402 22.96C24.5268 23.1733 24.2668 23.28 23.9602 23.28Z" fill="white"/>
</svg>
