<svg width="200" height="200" viewBox="0 0 200 200" fill="none" xmlns="http://www.w3.org/2000/svg">
<g clip-path="url(#clip0_3105_1923)">
<path fill-rule="evenodd" clip-rule="evenodd" d="M167.217 100.322C158.566 73.3288 143.382 40.2966 123.189 21.174C103.15 2.11593 78.2178 -3.17439 49.8123 24.9288C61.394 10.3224 74.4218 2.25787 88.2113 0.477222C102.246 -1.34213 116.952 3.31593 131.801 14.0256C138.67 19.8837 145.255 27.2256 151.31 36.0127C157.366 44.7611 162.892 54.9417 167.643 66.4643L170.858 64.2063L174.176 61.8579L170.677 81.0579L167.217 100.322ZM106.042 28.6708C87.3979 14.2708 66.5844 15.8966 45.0092 35.8837C68.5083 9.50948 91.2326 5.38045 111.71 18.9288C132.369 32.6579 150.781 64.3611 165.526 109.458L163.899 118.335L162.311 127.226L158.373 123.045L154.473 118.864C141.407 74.103 124.777 43.2256 106.042 28.6708ZM107.101 49.8579C99.2636 40.0127 88.689 33.2385 77.159 31.8966C65.629 30.5546 53.1822 34.7224 41.7426 46.7869H41.6393L41.6006 46.8256C61.5877 23.0579 81.536 18.6837 99.8833 30.5934C118.244 42.6063 135.106 71.0321 148.909 112.813L135.403 98.3095L121.898 83.8579L124.725 82.7095L127.617 81.4966C124.299 74.6321 120.929 68.6321 117.469 63.303C114.06 58.0643 110.6 53.5998 107.101 49.8579ZM44.3895 36.503V36.4127C44.5788 36.2149 44.7854 36.0385 45.0092 35.8837C44.7854 36.1073 44.5788 36.3138 44.3895 36.503ZM49.8123 24.9288C49.6574 25.1267 49.5154 25.303 49.3863 25.4579V25.3675C49.5154 25.2385 49.6574 25.0923 49.8123 24.9288Z" fill="#D22E28"/>
<path fill-rule="evenodd" clip-rule="evenodd" d="M70.8582 175.045C98.6439 180.658 134.874 183.496 161.394 175.238C187.772 167.071 204.596 147.909 193.983 109.535C201.045 126.684 201.665 141.909 196.578 154.774C191.336 167.884 180.09 178.503 163.46 186.193C154.951 189.303 145.397 191.522 134.77 192.58C124.157 193.587 112.575 193.445 100.18 191.896L100.606 195.884L101.045 199.922L86.0035 187.484L70.8582 175.045ZM163.215 156.555C185.035 147.29 193.686 128.219 186.572 99.3545C198.347 133.019 190.897 155.019 168.986 166.309C146.92 177.69 110.264 178.258 63.6923 169.135L49.7607 157.703L55.3385 156.361L60.8647 154.967C106.313 165.393 141.394 165.871 163.215 156.555ZM193.97 109.535C193.875 109.286 193.763 109.015 193.634 108.722H193.776C193.845 109.015 193.91 109.286 193.97 109.535ZM144.131 147.187C156.578 145.174 167.682 139.225 174.461 129.858C181.239 120.4 183.692 107.522 178.683 91.6255V91.5352H178.786C189.735 120.542 183.873 140.038 164.467 150.271C145.048 160.49 112.033 161.316 68.7924 153.006L107.333 143.496L106.894 146.619L106.507 149.69C114.202 150.167 121.123 150.167 127.372 149.69C133.608 149.251 139.186 148.438 144.131 147.187ZM186.468 99.019H186.43V98.9803C186.455 98.9803 186.468 98.9932 186.468 99.019Z" fill="#233E79"/>
<path fill-rule="evenodd" clip-rule="evenodd" d="M58.7988 58.3485C20.2578 99.5485 -26.5982 175.045 49.8124 197.471C13.0532 191.368 -3.52524 167.316 0.748481 131.29C4.31207 113.574 13.5309 93.9356 29.1023 74.4904L21.846 71.0323L58.7988 58.3485ZM49.8124 197.471C50.1653 197.531 50.5182 197.579 50.8711 197.613L50.8195 197.755C50.501 197.66 50.1653 197.566 49.8124 197.471ZM62.6465 196.555C-7.17921 181.239 3.29206 124.955 67.6433 55.3162L84.6478 49.5098L81.1875 60.413C15.7904 126.774 5.84855 178.452 62.6465 196.555ZM62.9822 196.607H62.8789C62.7842 196.572 62.7067 196.555 62.6465 196.555C62.7412 196.555 62.8531 196.572 62.9822 196.607ZM44.0409 135.419C34.538 158.658 40.968 185.703 73.2598 193.961L73.3114 194.013C12.3818 182.387 19.1087 133.071 78.6439 68.1936L66.4941 105.936L61.6394 102.039C52.937 114.529 47.1655 125.626 44.0409 135.419Z" fill="#029B4B"/>
</g>
<defs>
<clipPath id="clip0_3105_1923">
<rect width="200" height="200" fill="white"/>
</clipPath>
</defs>
</svg>
