<svg version="1.2" xmlns="http://www.w3.org/2000/svg" viewBox="0 0 1549 1550" width="1549" height="1550">
	<title>IEX</title>
	<style>
		.s0 { fill: #d22e28 } 
		.s1 { fill: #233e79 } 
		.s2 { fill: #029b4b } 
	</style>
	<path fill-rule="evenodd" class="s0" d="m1295.1 777.5c-67-209.2-184.6-465.2-341-613.4-155.2-147.7-348.3-188.7-568.3 29.1 89.7-113.2 190.6-175.7 297.4-189.5 108.7-14.1 222.6 22 337.6 105 53.2 45.4 104.2 102.3 151.1 170.4 46.9 67.8 89.7 146.7 126.5 236l24.9-17.5 25.7-18.2-27.1 148.8zm-473.8-555.3c-144.4-111.6-305.6-99-472.7 55.9 182-204.4 358-236.4 516.6-131.4 160 106.4 302.6 352.1 416.8 701.6l-12.6 68.8-12.3 68.9-30.5-32.4-30.2-32.4c-101.2-346.9-230-586.2-375.1-699zm8.2 164.2c-60.7-76.3-142.6-128.8-231.9-139.2-89.3-10.4-185.7 21.9-274.3 115.4h-0.8l-0.3 0.3c154.8-184.2 309.3-218.1 451.4-125.8 142.2 93.1 272.8 313.4 379.7 637.2l-104.6-112.4-104.6-112 21.9-8.9 22.4-9.4c-25.7-53.2-51.8-99.7-78.6-141-26.4-40.6-53.2-75.2-80.3-104.2zm-485.7-103.5v-0.7q2.2-2.3 4.8-4.1-2.6 2.6-4.8 4.8zm42-89.7q-1.8 2.3-3.3 4.1v-0.7q1.5-1.5 3.3-3.4z"/>
	<path fill-rule="evenodd" class="s1" d="m548.8 1356.6c215.2 43.5 495.8 65.5 701.2 1.5 204.3-63.3 334.6-211.8 252.4-509.2 54.7 132.9 59.5 250.9 20.1 350.6-40.6 101.6-127.7 183.9-256.5 243.5-65.9 24.1-139.9 41.3-222.2 49.5-82.2 7.8-171.9 6.7-267.9-5.3l3.3 30.9 3.4 31.3-116.5-96.4zm715.3-143.3c169-71.8 236-219.6 180.9-443.3 91.2 260.9 33.5 431.4-136.2 518.9-170.9 88.2-454.8 92.6-815.5 21.9l-107.9-88.6 43.2-10.4 42.8-10.8c352 80.8 623.7 84.5 792.7 12.3zm238.2-364.4q-1.1-2.9-2.6-6.3h1.1q0.8 3.4 1.5 6.3zm-386 291.8c96.4-15.6 182.4-61.7 234.9-134.3 52.5-73.3 71.5-173.1 32.7-296.3v-0.7h0.8c84.8 224.8 39.4 375.9-110.9 455.2-150.4 79.2-406.1 85.6-741 21.2l298.5-73.7-3.4 24.2-3 23.8c59.6 3.7 113.2 3.7 161.6 0 48.3-3.4 91.5-9.7 129.8-19.4zm327.9-373.3h-0.3v-0.3q0.3 0 0.3 0.3zm0 0q0.4 1.5 0.8 2.6-0.4-1.1-0.8-2.6z"/>
	<path fill-rule="evenodd" class="s2" d="m455.4 452.2c-298.5 319.3-661.4 904.4-69.6 1078.2-284.7-47.3-413.1-233.7-380-512.9 27.6-137.3 99-289.5 219.6-440.2l-56.2-26.8zm-69.6 1078.2q4.1 0.7 8.2 1.1l-0.4 1.1q-3.7-1.1-7.8-2.2zm99.4-7.1c-540.8-118.7-459.7-554.9 38.7-1094.6l131.7-45-26.8 84.5c-506.5 514.3-583.5 914.8-143.6 1055.1zm2.6 0.4h-0.8q-1.1-0.4-1.8-0.4 1.1 0 2.6 0.4zm-146.7-474.2c-73.6 180.1-23.8 389.7 226.3 453.7l0.4 0.4c-471.9-90.1-419.8-472.3 41.3-975.1l-94.1 292.5-37.6-30.2c-67.4 96.8-112.1 182.8-136.3 258.7z"/>
</svg>