<svg width="567" height="565" viewBox="0 0 567 565" fill="none" xmlns="http://www.w3.org/2000/svg">
<path d="M124.663 342.917H146.493V344.503C145.216 344.609 144.121 344.737 143.206 344.875C142.292 345.013 141.391 345.292 140.498 345.706C139.605 346.132 138.654 346.75 137.625 347.59C136.594 348.421 135.329 349.56 133.833 351.006L118.005 366.684L137.419 387.524C138.748 389.025 139.95 390.345 141.041 391.483C142.12 392.622 143.157 393.569 144.168 394.316C145.162 395.071 146.174 395.646 147.21 396.019C148.238 396.424 149.334 396.572 150.499 396.529V398.105H125.077V396.529C127.297 396.424 128.833 396.274 129.663 396.104C130.497 395.944 130.919 395.39 130.919 394.443C130.919 393.772 130.487 392.814 129.628 391.569C128.754 390.314 127.745 388.982 126.578 387.567C125.409 386.141 124.218 384.789 123.005 383.479C121.769 382.17 120.808 381.16 120.084 380.435L111.254 371.675L109.078 373.433V389.025C109.078 390.473 109.163 391.665 109.334 392.611C109.499 393.56 109.844 394.305 110.378 394.857C110.903 395.412 111.663 395.815 112.664 396.059C113.664 396.315 114.972 396.475 116.577 396.529V398.105H93.0839V396.529C94.6908 396.475 95.9979 396.315 96.9983 396.059C98.0031 395.815 98.7638 395.39 99.2907 394.773C99.8176 394.166 100.169 393.335 100.334 392.272C100.503 391.217 100.584 389.824 100.584 388.099V352.006C100.584 350.389 100.456 349.123 100.206 348.175C99.9566 347.217 99.5414 346.505 98.9565 346.004C98.3716 345.503 97.5893 345.152 96.6273 344.962C95.6528 344.769 94.4723 344.609 93.0839 344.503V342.917H116.749V344.503C115.136 344.609 113.834 344.78 112.829 345.003C111.834 345.228 111.051 345.6 110.504 346.132C109.941 346.653 109.562 347.378 109.366 348.293C109.18 349.207 109.078 350.454 109.078 352.006V369.089C113.802 364.875 117.573 361.479 120.377 358.926C123.174 356.372 125.323 354.327 126.795 352.795C128.259 351.272 129.216 350.113 129.663 349.335C130.11 348.557 130.339 347.803 130.339 347.089C130.339 345.971 129.903 345.292 129.041 345.048C128.173 344.8 126.716 344.609 124.663 344.503V342.917Z" fill="white"/>
<path d="M167.413 369.504C168.578 369.504 169.871 369.494 171.28 369.43C172.705 369.378 174.13 369.218 175.578 368.973C177.024 368.728 178.427 368.344 179.786 367.845C181.146 367.344 182.354 366.653 183.412 365.759C184.466 364.877 185.317 363.747 185.95 362.385C186.595 361.022 186.913 359.341 186.913 357.34C186.913 354.561 186.326 352.41 185.157 350.879C183.998 349.356 182.62 348.228 181.041 347.505C179.456 346.781 177.859 346.345 176.242 346.217C174.631 346.067 173.411 346.004 172.578 346.004C170.349 346.004 168.94 346.196 168.328 346.579C167.715 346.973 167.413 347.782 167.413 349.005V369.504ZM205.327 398.105H191.914L172.077 372.432L167.413 372.593V389.024C167.413 390.41 167.499 391.568 167.664 392.485C167.833 393.4 168.156 394.156 168.662 394.742C169.163 395.317 169.913 395.741 170.913 396.019C171.918 396.306 173.247 396.475 174.913 396.53V398.105H151.827V396.53C153.493 396.423 154.813 396.211 155.791 395.9C156.759 395.602 157.466 395.125 157.913 394.487C158.354 393.849 158.635 393.017 158.743 391.984C158.858 390.953 158.908 389.663 158.908 388.1V352.006C158.908 350.452 158.812 349.208 158.62 348.292C158.43 347.379 158.061 346.665 157.534 346.174C157.003 345.673 156.286 345.312 155.365 345.088C154.455 344.864 153.276 344.663 151.827 344.504V342.918H174.823C176.662 342.918 178.796 343.066 181.242 343.374C183.695 343.685 186.007 344.354 188.199 345.377C190.397 346.409 192.252 347.878 193.742 349.795C195.247 351.708 195.998 354.285 195.998 357.501C195.998 360.288 195.412 362.555 194.243 364.301C193.084 366.056 191.673 367.43 190.039 368.43C188.396 369.43 186.727 370.132 185.041 370.559C183.344 370.975 181.967 371.294 180.912 371.516L198.072 392.612C199.014 393.72 200.04 394.623 201.113 395.317C202.204 396.009 203.603 396.423 205.327 396.53V398.105Z" fill="white"/>
<path d="M251.985 398.105H206.993V396.529C208.323 396.476 209.45 396.349 210.37 396.157C211.285 395.965 212.04 395.602 212.62 395.071C213.199 394.538 213.615 393.805 213.866 392.856C214.12 391.911 214.242 390.643 214.242 389.025V352.006C214.242 350.336 214.12 349.027 213.866 348.079C213.615 347.143 213.199 346.42 212.62 345.92C212.04 345.419 211.285 345.089 210.37 344.918C209.45 344.759 208.323 344.609 206.993 344.503V342.917H251.242L251.49 354.839H249.407C249.071 353.007 248.672 351.507 248.204 350.336C247.725 349.175 247.017 348.283 246.07 347.674C245.13 347.059 243.921 346.642 242.449 346.419C240.975 346.195 239.071 346.089 236.746 346.089H225.492C224.597 346.089 223.921 346.217 223.448 346.461C222.975 346.705 222.742 347.524 222.742 348.92V367.429H235.576C237.406 367.429 238.88 367.291 239.997 367.014C241.104 366.727 241.959 366.291 242.576 365.683C243.188 365.067 243.64 364.259 243.953 363.256C244.253 362.257 244.517 361.001 244.741 359.511H246.661V378.85H244.741C244.455 377.179 244.162 375.837 243.827 374.805C243.492 373.785 243.007 372.987 242.37 372.432C241.732 371.869 240.864 371.485 239.785 371.27C238.705 371.037 237.295 370.931 235.576 370.931L222.742 370.76V391.443C222.742 392.273 222.81 392.931 222.955 393.4C223.088 393.869 223.549 394.219 224.327 394.443C225.102 394.667 226.321 394.806 227.987 394.858C229.661 394.911 232.05 394.943 235.161 394.943C237.773 394.943 240.017 394.761 241.912 394.399C243.8 394.039 245.432 393.443 246.823 392.612C248.214 391.771 249.422 390.665 250.449 389.271C251.475 387.885 252.464 386.13 253.405 384.022H255.741L251.985 398.105Z" fill="white"/>
<path d="M274.071 391.601C274.071 393.049 274.405 393.986 275.071 394.4C275.736 394.817 277.071 395.028 279.071 395.028C279.958 395.028 281.209 394.987 282.821 394.901C284.434 394.817 286.193 394.549 288.114 394.113C290.034 393.656 291.99 392.952 293.99 391.984C295.985 391.004 297.794 389.621 299.405 387.812C301.016 386.003 302.34 383.724 303.368 380.978C304.394 378.222 304.905 374.816 304.905 370.76C304.905 367.258 304.33 363.884 303.198 360.638C302.055 357.38 300.038 354.454 297.156 351.837C296.16 350.952 295.086 350.144 293.948 349.421C292.805 348.697 291.491 348.079 289.991 347.59C288.485 347.089 286.767 346.695 284.825 346.419C282.88 346.142 280.597 346.002 277.985 346.002C276.986 346.002 276.225 346.101 275.698 346.292C275.166 346.493 274.784 346.729 274.528 347.004C274.284 347.28 274.139 347.633 274.113 348.037C274.087 348.463 274.071 348.866 274.071 349.25V391.601ZM258.246 396.529C259.799 396.474 261.056 396.316 262.034 396.06C263.007 395.816 263.757 395.411 264.278 394.858C264.805 394.305 265.157 393.559 265.316 392.612C265.49 391.666 265.576 390.473 265.576 389.024V352.006C265.576 350.452 265.49 349.208 265.316 348.292C265.157 347.378 264.82 346.653 264.32 346.131C263.826 345.601 263.093 345.226 262.113 345.003C261.141 344.778 259.853 344.61 258.246 344.503V342.917H280.741C285.741 342.917 290.285 343.481 294.363 344.62C298.447 345.771 301.943 347.483 304.857 349.793C307.788 352.103 310.028 354.999 311.614 358.467C313.204 361.938 313.991 366.003 313.991 370.686C313.991 373.465 313.517 376.445 312.575 379.649C311.628 382.842 309.943 385.81 307.533 388.569C305.112 391.315 301.831 393.603 297.698 395.4C293.558 397.211 288.295 398.105 281.91 398.105H258.246V396.529Z" fill="white"/>
<path d="M363.063 398.105H318.07V396.529C319.404 396.476 320.533 396.349 321.449 396.157C322.357 395.965 323.108 395.602 323.687 395.071C324.277 394.538 324.693 393.805 324.947 392.856C325.192 391.911 325.321 390.643 325.321 389.025V352.006C325.321 350.336 325.192 349.027 324.947 348.079C324.693 347.143 324.277 346.42 323.687 345.92C323.108 345.419 322.357 345.089 321.449 344.918C320.533 344.759 319.404 344.609 318.07 344.503V342.917H362.32L362.57 354.839H360.488C360.149 353.007 359.751 351.507 359.282 350.336C358.803 349.175 358.091 348.283 357.154 347.674C356.207 347.059 354.995 346.642 353.523 346.419C352.049 346.195 350.148 346.089 347.815 346.089H336.569C335.687 346.089 334.995 346.217 334.527 346.461C334.055 346.705 333.821 347.524 333.821 348.92V367.429H346.65C348.49 367.429 349.964 367.291 351.068 367.014C352.181 366.727 353.041 366.291 353.649 365.683C354.256 365.067 354.719 364.259 355.027 363.256C355.33 362.257 355.59 361.001 355.815 359.511H357.735V378.85H355.815C355.543 377.179 355.234 375.837 354.898 374.805C354.564 373.785 354.085 372.987 353.441 372.432C352.809 371.869 351.948 371.485 350.857 371.27C349.782 371.037 348.373 370.931 346.65 370.931L333.821 370.76V391.443C333.821 392.273 333.887 392.931 334.033 393.4C334.166 393.869 334.629 394.219 335.399 394.443C336.181 394.667 337.399 394.806 339.069 394.858C340.734 394.911 343.121 394.943 346.234 394.943C348.839 394.943 351.096 394.761 352.989 394.399C354.868 394.039 356.516 393.443 357.91 392.612C359.286 391.771 360.499 390.665 361.527 389.271C362.552 387.885 363.539 386.13 364.485 384.022H366.818L363.063 398.105Z" fill="white"/>
<path d="M384.972 369.504C386.153 369.504 387.441 369.494 388.855 369.43C390.271 369.378 391.707 369.218 393.149 368.973C394.59 368.728 395.993 368.344 397.355 367.845C398.717 367.344 399.925 366.653 400.977 365.759C402.037 364.877 402.886 363.747 403.524 362.385C404.163 361.022 404.489 359.341 404.489 357.34C404.489 354.561 403.899 352.41 402.74 350.879C401.568 349.356 400.191 348.228 398.611 347.505C397.021 346.781 395.43 346.345 393.813 346.217C392.201 346.067 390.984 346.004 390.149 346.004C387.921 346.004 386.511 346.196 385.898 346.579C385.287 346.973 384.972 347.782 384.972 349.005V369.504ZM422.898 398.105H409.484L389.653 372.432L384.972 372.593V389.024C384.972 390.41 385.069 391.568 385.234 392.485C385.397 393.4 385.728 394.156 386.239 394.742C386.734 395.317 387.483 395.741 388.484 396.019C389.489 396.306 390.818 396.475 392.484 396.53V398.105H369.399V396.53C371.064 396.423 372.384 396.211 373.356 395.9C374.333 395.602 375.036 395.125 375.483 394.487C375.93 393.849 376.207 393.017 376.32 391.984C376.431 390.953 376.482 389.663 376.482 388.1V352.006C376.482 350.452 376.387 349.208 376.19 348.292C375.994 347.379 375.634 346.665 375.111 346.174C374.573 345.673 373.862 345.312 372.941 345.088C372.021 344.864 370.846 344.663 369.399 344.504V342.918H392.403C394.232 342.918 396.366 343.066 398.814 343.374C401.26 343.685 403.579 344.354 405.769 345.377C407.967 346.409 409.808 347.878 411.312 349.795C412.817 351.708 413.57 354.285 413.57 357.501C413.57 360.288 412.982 362.555 411.813 364.301C410.652 366.056 409.243 367.43 407.605 368.43C405.966 369.43 404.308 370.132 402.606 370.559C400.915 370.975 399.537 371.294 398.478 371.516L415.655 392.612C416.595 393.72 417.604 394.623 418.684 395.317C419.775 396.009 421.18 396.423 422.898 396.53V398.105Z" fill="white"/>
<path d="M469.557 398.105H424.563V396.529C425.897 396.476 427.015 396.349 427.935 396.157C428.856 395.965 429.612 395.602 430.19 395.071C430.771 394.538 431.195 393.805 431.435 392.856C431.684 391.911 431.819 390.643 431.819 389.025V352.006C431.819 350.336 431.684 349.027 431.435 348.079C431.195 347.143 430.771 346.42 430.19 345.92C429.612 345.419 428.856 345.089 427.935 344.918C427.015 344.759 425.897 344.609 424.563 344.503V342.917H468.807L469.057 354.839H466.978C466.642 353.007 466.244 351.507 465.774 350.336C465.296 349.175 464.59 348.283 463.642 347.674C462.702 347.059 461.493 346.642 460.026 346.419C458.546 346.195 456.647 346.089 454.317 346.089H443.062C442.173 346.089 441.488 346.217 441.018 346.461C440.552 346.705 440.313 347.524 440.313 348.92V367.429H453.146C454.977 367.429 456.451 367.291 457.567 367.014C458.674 366.727 459.536 366.291 460.149 365.683C460.759 365.067 461.212 364.259 461.52 363.256C461.823 362.257 462.088 361.001 462.312 359.511H464.223V378.85H462.312C462.036 377.179 461.732 375.837 461.397 374.805C461.062 373.785 460.578 372.987 459.94 372.432C459.302 371.869 458.441 371.485 457.35 371.27C456.27 371.037 454.865 370.931 453.146 370.931L440.313 370.76V391.443C440.313 392.273 440.377 392.931 440.52 393.4C440.659 393.869 441.115 394.219 441.898 394.443C442.674 394.667 443.903 394.806 445.567 394.858C447.234 394.911 449.621 394.943 452.727 394.943C455.343 394.943 457.589 394.761 459.482 394.399C461.371 394.039 463.009 393.443 464.397 392.612C465.791 391.771 466.987 390.665 468.013 389.271C469.042 387.885 470.035 386.13 470.978 384.022H473.306L469.557 398.105Z" fill="white"/>
<path d="M406.585 427.577H405.313V415.422H406.585V427.577Z" fill="white"/>
<path d="M473.609 422.138H405.962V420.861H473.609V422.138Z" fill="white"/>
<path d="M161.084 427.577H159.797V415.422H161.084V427.577Z" fill="white"/>
<path d="M160.424 422.137H92.7812V420.85H160.424V422.137Z" fill="white"/>
<path d="M203.641 413.048C203.21 413.559 202.96 413.868 202.891 414.006C202.63 414.348 202.359 414.848 202.062 415.505L195.274 430.343H195.003L188.653 416.463L182.317 430.343H182.03L175.248 415.496C174.877 414.666 174.318 413.868 173.567 413.048H176.43L182.721 426.81L189.019 413.048H189.402L195.695 426.833L201.983 413.048H203.641Z" fill="white"/>
<path d="M174.811 413.633C175.2 414.175 175.529 414.709 175.784 415.241L182.169 429.237L182.678 428.119L176.056 413.633H174.811ZM188.699 415.144L195.141 429.237L195.647 428.14L189.205 414.038L188.699 415.144ZM195.647 430.919H194.625L188.652 417.859L182.689 430.919H181.667L174.722 415.73C174.386 414.975 173.854 414.22 173.135 413.453L172.232 412.473H176.817L182.721 425.395L188.647 412.473H189.774L195.694 425.427L201.602 412.473H204.885L204.076 413.431C203.513 414.103 203.413 414.261 203.406 414.293C203.13 414.655 202.865 415.125 202.599 415.74L195.647 430.919Z" fill="white"/>
<path d="M215.912 428.662L215.386 430.089H205.178C205.354 429.684 205.459 428.875 205.459 427.663V415.496C205.459 414.272 205.354 413.463 205.178 413.048H214.982L215.615 414.39C214.918 414.145 214.008 414.028 212.907 414.028H207.577V419.627H214.502L214.146 420.595H207.577V429.12H213.316C214.136 429.12 214.997 428.96 215.912 428.662Z" fill="white"/>
<path d="M205.933 429.513H206.999V413.633H205.923C206.009 414.101 206.041 414.719 206.041 415.495V427.661C206.041 428.44 206.009 429.045 205.933 429.513ZM215.79 430.673H204.275L204.646 429.854C204.736 429.664 204.875 429.131 204.875 427.661V415.495C204.875 414.007 204.736 413.485 204.646 413.294L204.29 412.474H215.339L216.736 415.401L215.422 414.954C214.79 414.73 213.939 414.601 212.907 414.601H208.168V419.041H215.339L214.551 421.179H208.168V428.545H213.316C214.066 428.545 214.869 428.397 215.731 428.11L216.87 427.726L215.79 430.673Z" fill="white"/>
<path d="M226.79 422.542L223.944 416.336L221.097 422.542H226.79ZM233.097 430.088H230.236L227.343 423.766H220.546L217.651 430.088H216.002C216.39 429.61 216.657 429.29 216.767 429.151C217.008 428.79 217.269 428.291 217.571 427.63L224.348 412.804H224.629L231.412 427.663C231.79 428.471 232.343 429.28 233.097 430.088Z" fill="white"/>
<path d="M222.007 421.968H225.864L223.944 417.741L222.007 421.968ZM230.598 429.513H231.853C231.449 428.982 231.13 428.438 230.88 427.896L224.492 413.92L223.976 415.029L227.689 423.129L220.242 423.18H227.715L230.598 429.513ZM234.438 430.673H229.847L226.959 424.353H220.924L218.025 430.673H214.753L215.55 429.727C215.939 429.249 216.193 428.929 216.306 428.79C216.498 428.492 216.764 428.012 217.04 427.407L223.976 412.229H225.007L231.949 427.416C232.284 428.173 232.816 428.929 233.534 429.695L234.438 430.673Z" fill="white"/>
<path d="M245.566 428.662L245.039 430.089H234.832C235.029 429.684 235.115 428.875 235.115 427.663V415.496C235.115 414.272 235.029 413.463 234.832 413.048H237.519C237.322 413.463 237.229 414.272 237.229 415.496V429.12H242.982C243.784 429.12 244.651 428.96 245.566 428.662Z" fill="white"/>
<path d="M235.593 429.513H236.656V415.495C236.656 414.719 236.688 414.101 236.752 413.633H235.593C235.657 414.101 235.689 414.719 235.689 415.495V427.661C235.689 428.44 235.657 429.045 235.593 429.513ZM245.455 430.673H233.943L234.316 429.854C234.396 429.664 234.528 429.131 234.528 427.661V415.495C234.528 414.007 234.396 413.485 234.299 413.294L233.943 412.474H238.423L238.051 413.294C237.96 413.485 237.822 414.007 237.822 415.495V428.545H242.981C243.715 428.545 244.534 428.397 245.379 428.11L246.538 427.726L245.455 430.673Z" fill="white"/>
<path d="M257.933 414.39C257.226 414.145 256.341 414.028 255.236 414.028H250.778V427.663C250.778 428.874 250.874 429.684 251.029 430.088H248.386C248.577 429.684 248.668 428.874 248.668 427.663V414.028H244.194C243.088 414.028 242.188 414.145 241.486 414.39L242.125 413.048H257.294L257.933 414.39Z" fill="white"/>
<path d="M249.14 429.513H250.294C250.226 429.045 250.198 428.44 250.198 427.661V413.633H249.241V427.661C249.241 428.44 249.209 429.045 249.14 429.513ZM251.906 430.673H247.475L247.848 429.844C247.938 429.664 248.077 429.131 248.077 427.661V414.601H244.193C243.161 414.601 242.316 414.73 241.677 414.954L240.369 415.401L241.753 412.474H257.662L259.055 415.401L257.747 414.954C257.103 414.73 256.268 414.601 255.235 414.601H251.369V427.661C251.369 429.151 251.496 429.683 251.576 429.864L251.906 430.673Z" fill="white"/>
<path d="M275.646 430.088H272.964C273.145 429.683 273.247 428.875 273.247 427.661V420.35H262.315V427.661C262.315 428.875 262.406 429.683 262.598 430.088H259.917C260.097 429.683 260.193 428.875 260.193 427.661V415.495C260.193 414.271 260.097 413.463 259.917 413.048H262.598C262.406 413.463 262.315 414.271 262.315 415.495V419.381H273.247V415.495C273.247 414.271 273.145 413.463 272.964 413.048H275.646C275.454 413.463 275.363 414.271 275.363 415.495V427.661C275.363 428.875 275.454 429.683 275.646 430.088Z" fill="white"/>
<path d="M260.672 429.513H261.837C261.779 429.045 261.735 428.44 261.735 427.661V415.495C261.735 414.719 261.779 414.101 261.837 413.633H260.656C260.747 414.101 260.773 414.719 260.773 415.495V427.661C260.773 428.44 260.747 429.045 260.672 429.513ZM273.725 429.513H274.885C274.821 429.045 274.784 428.44 274.784 427.661V415.495C274.784 414.719 274.821 414.101 274.885 413.633H273.704C273.795 414.101 273.827 414.719 273.827 415.495V427.661C273.827 428.44 273.795 429.045 273.725 429.513ZM276.549 430.673H272.065L272.431 429.854C272.517 429.664 272.661 429.131 272.661 427.661V420.935H262.9V427.661C262.9 429.131 263.039 429.664 263.119 429.844L263.501 430.673H259.007L259.385 429.854C259.469 429.664 259.609 429.131 259.609 427.661V415.495C259.609 414.007 259.469 413.485 259.385 413.294L259.018 412.474H263.491L263.123 413.294C263.039 413.485 262.9 414.007 262.9 415.495V418.807H272.661V415.495C272.661 414.007 272.517 413.485 272.431 413.294L272.069 412.474H276.549L276.177 413.294C276.087 413.485 275.948 414.007 275.948 415.495V427.661C275.948 429.131 276.087 429.664 276.17 429.844L276.549 430.673Z" fill="white"/>
<path d="M299.779 417.902C299.779 419.457 299.166 420.69 297.953 421.607C296.88 422.392 295.546 422.786 293.98 422.786C293.082 422.786 292.24 422.647 291.479 422.351L292.082 421.648C292.641 421.776 293.172 421.84 293.682 421.84C294.91 421.84 295.917 421.479 296.683 420.743C297.426 420.062 297.788 419.211 297.788 418.188C297.788 415.944 296.609 414.622 294.235 414.197C293.609 414.081 292.476 414.028 290.837 414.028V427.663C290.837 428.875 290.927 429.684 291.124 430.089H288.437C288.618 429.684 288.72 428.875 288.72 427.663V415.496C288.72 414.272 288.618 413.463 288.437 413.048H291.479C294.342 413.048 296.193 413.238 296.996 413.612C298.847 414.475 299.779 415.9 299.779 417.902Z" fill="white"/>
<path d="M291.427 414.613V421.531L291.868 420.989L292.215 421.083C293.874 421.457 295.331 421.233 296.296 420.316C296.917 419.742 297.202 419.062 297.202 418.189C297.202 416.232 296.231 415.146 294.13 414.771C293.622 414.677 292.72 414.623 291.427 414.613ZM295.044 413.771C297.231 414.389 298.374 415.912 298.374 418.189C298.374 419.381 297.938 420.381 297.081 421.169C296.767 421.477 296.406 421.723 296.018 421.925C296.602 421.743 297.14 421.477 297.619 421.127C298.683 420.329 299.198 419.276 299.198 417.901C299.198 416.133 298.396 414.911 296.751 414.145C296.48 414.017 295.976 413.888 295.044 413.771ZM289.193 429.513H290.359C290.295 429.045 290.256 428.44 290.256 427.661V413.633H289.193C289.266 414.101 289.294 414.719 289.294 415.495V427.661C289.294 428.44 289.266 429.045 289.193 429.513ZM292.023 430.673H287.527L287.907 429.854C288.002 429.664 288.129 429.131 288.129 427.661V415.495C288.129 414.007 288.002 413.485 287.907 413.294L287.527 412.474H291.48C294.459 412.474 296.343 412.665 297.231 413.091C299.298 414.037 300.367 415.667 300.367 417.901C300.367 419.637 299.67 421.042 298.31 422.063C297.129 422.925 295.67 423.373 293.98 423.373C293.082 423.373 292.215 423.235 291.427 422.947V427.661C291.427 429.131 291.561 429.664 291.64 429.844L292.023 430.673Z" fill="white"/>
<path d="M307.969 422.542L305.139 416.336L302.293 422.542H307.969ZM314.289 430.088H311.417L308.521 423.766H301.74L298.836 430.088H297.187C297.593 429.61 297.858 429.29 297.952 429.151C298.194 428.79 298.464 428.291 298.762 427.63L305.549 412.804H305.821L312.619 427.663C312.975 428.471 313.538 429.28 314.289 430.088Z" fill="white"/>
<path d="M303.198 421.968H307.07L305.14 417.741L303.198 421.968ZM311.794 429.513H313.048C312.645 428.982 312.321 428.438 312.086 427.896L305.693 413.92L305.182 415.029L308.874 423.129L301.444 423.18H308.899L311.794 429.513ZM315.639 430.673H311.055L308.155 424.353H302.119L299.213 430.673H295.949L296.751 429.727C297.13 429.249 297.384 428.929 297.492 428.79C297.697 428.492 297.939 428.012 298.235 427.407L305.182 412.229H306.198L306.351 412.57L313.15 427.416C313.485 428.173 314.012 428.929 314.715 429.695L315.639 430.673Z" fill="white"/>
<path d="M329.692 430.088H326.351C325.006 428.875 323.836 427.661 322.848 426.459C322.576 426.118 321.271 424.438 318.953 421.382L319.176 421.115C320.224 421.19 321.106 421.179 321.826 421.083C322.878 420.978 323.713 420.583 324.363 419.913C325.006 419.241 325.321 418.487 325.299 417.636C325.271 416.751 324.927 415.996 324.284 415.368C323.66 414.783 322.831 414.39 321.826 414.198C321.214 414.08 320.08 414.027 318.426 414.027V427.661C318.426 428.875 318.518 429.683 318.699 430.088H316.029C316.208 429.683 316.304 428.875 316.304 427.661V415.495C316.304 414.271 316.208 413.463 316.029 413.048H319.07C320.81 413.048 321.845 413.069 322.192 413.1C323.66 413.229 324.794 413.591 325.601 414.176C326.756 414.995 327.337 416.133 327.337 417.561C327.337 418.838 326.739 419.923 325.544 420.828C324.331 421.712 322.953 422.105 321.411 422.009C323.814 425.342 326.581 428.022 329.692 430.088Z" fill="white"/>
<path d="M319.022 420.509L319.226 420.531C320.224 420.605 321.059 420.595 321.751 420.509C322.692 420.404 323.401 420.085 323.943 419.509C324.474 418.966 324.735 418.338 324.718 417.635C324.686 416.922 324.405 416.305 323.878 415.783C323.347 415.294 322.608 414.953 321.715 414.772C321.224 414.677 320.326 414.622 319.022 414.613V420.509ZM322.278 413.697C323.229 413.931 324.043 414.347 324.686 414.942C325.436 415.689 325.83 416.571 325.873 417.605C325.9 418.636 325.545 419.541 324.782 420.316C324.455 420.668 324.086 420.944 323.66 421.169C324.193 420.979 324.703 420.711 325.192 420.351C326.244 419.573 326.756 418.647 326.756 417.56C326.756 416.317 326.271 415.369 325.274 414.655C324.565 414.145 323.559 413.825 322.278 413.697ZM316.777 429.515H317.959C317.884 429.045 317.857 428.438 317.857 427.661V413.633H316.777C316.858 414.103 316.899 414.719 316.899 415.495V427.661C316.899 428.438 316.858 429.045 316.777 429.515ZM326.576 429.515H327.863C325.314 427.577 322.98 425.183 320.943 422.351L320.506 421.743H319.958C321.941 424.341 323.055 425.789 323.3 426.109C324.23 427.227 325.338 428.365 326.576 429.515ZM331.623 430.672H326.128L325.959 430.525C324.597 429.289 323.411 428.055 322.394 426.843C322.145 426.523 321.018 425.053 319.022 422.415V427.661C319.022 429.131 319.156 429.662 319.242 429.842L319.608 430.672H315.14L315.502 429.854C315.575 429.662 315.724 429.131 315.724 427.661V415.495C315.724 414.006 315.575 413.484 315.502 413.292L315.14 412.473H319.069C320.836 412.473 321.873 412.495 322.246 412.526C323.81 412.654 325.048 413.048 325.948 413.697C327.263 414.634 327.925 415.933 327.925 417.56C327.925 419.028 327.236 420.275 325.873 421.287C324.883 422.021 323.778 422.456 322.565 422.575C324.762 425.427 327.263 427.778 330.005 429.609L331.623 430.672Z" fill="white"/>
<path d="M344.395 414.39C343.691 414.145 342.782 414.028 341.702 414.028H337.239V427.663C337.239 428.874 337.331 429.684 337.49 430.088H334.842C335.021 429.684 335.118 428.874 335.118 427.663V414.028H330.655C329.554 414.028 328.655 414.145 327.943 414.39L328.586 413.048H343.76L344.395 414.39Z" fill="white"/>
<path d="M335.602 429.513H336.754C336.703 429.045 336.659 428.44 336.659 427.661V413.633H335.702V427.661C335.702 428.44 335.671 429.045 335.602 429.513ZM338.364 430.673H333.942L334.319 429.844C334.394 429.664 334.538 429.131 334.538 427.661V414.601H330.655C329.629 414.601 328.778 414.73 328.144 414.954L326.831 415.401L328.213 412.474H344.116L345.522 415.401L344.208 414.954C343.563 414.73 342.723 414.601 341.702 414.601H337.835V427.661C337.835 429.151 337.957 429.683 338.037 429.864L338.364 430.673Z" fill="white"/>
<path d="M361.824 413.048C361.643 413.484 361.554 414.037 361.554 414.762V430.568H361.272L346.931 416.272V428.386C346.931 429.099 347.028 429.674 347.203 430.088H345.554C345.729 429.674 345.83 429.099 345.83 428.386V412.57H346.106L360.441 426.884V414.762C360.441 414.037 360.357 413.484 360.176 413.048H361.824Z" fill="white"/>
<path d="M346.409 414.921L360.973 429.45V428.215L346.409 413.697V414.921ZM362.149 431.165H361.037L360.862 430.993L347.516 417.667V428.387C347.516 429.024 347.59 429.515 347.744 429.853L348.096 430.674H344.67L345.01 429.864C345.166 429.515 345.243 429.014 345.243 428.387V411.984H346.334L346.526 412.154L359.863 425.469V414.763C359.863 414.123 359.788 413.622 359.638 413.293L359.276 412.473H362.723L362.373 413.293C362.208 413.622 362.149 414.123 362.149 414.763V431.165Z" fill="white"/>
<path d="M375.872 428.662L375.345 430.089H365.145C365.324 429.684 365.408 428.875 365.408 427.663V415.496C365.408 414.272 365.324 413.463 365.145 413.048H374.931L375.559 414.39C374.867 414.145 373.957 414.028 372.861 414.028H367.542V419.627H374.451L374.112 420.595H367.542V429.12H373.282C374.085 429.12 374.948 428.96 375.872 428.662Z" fill="white"/>
<path d="M365.883 429.513H366.957V413.633H365.883C365.974 414.101 365.989 414.719 365.989 415.495V427.661C365.989 428.44 365.974 429.045 365.883 429.513ZM375.749 430.673H364.234L364.618 429.854C364.692 429.664 364.819 429.131 364.819 427.661V415.495C364.819 414.007 364.692 413.485 364.618 413.294L364.234 412.474H375.298L376.691 415.401L375.362 414.954C374.745 414.73 373.892 414.601 372.861 414.601H368.116V419.041H375.298L374.506 421.179H368.116V428.545H373.282C374.015 428.545 374.824 428.397 375.68 428.11L376.835 427.726L375.749 430.673Z" fill="white"/>
<path d="M392.229 430.088H388.888C387.543 428.875 386.388 427.661 385.388 426.459C385.105 426.118 383.813 424.438 381.499 421.382L381.723 421.115C382.762 421.19 383.644 421.179 384.368 421.083C385.41 420.978 386.267 420.583 386.909 419.913C387.543 419.241 387.857 418.487 387.85 417.636C387.798 416.751 387.463 415.996 386.819 415.368C386.191 414.783 385.384 414.39 384.368 414.198C383.766 414.08 382.627 414.027 380.979 414.027V427.661C380.979 428.875 381.068 429.683 381.251 430.088H378.578C378.762 429.683 378.85 428.875 378.85 427.661V415.495C378.85 414.271 378.762 413.463 378.578 413.048H381.607C383.355 413.048 384.393 413.069 384.723 413.1C386.191 413.229 387.34 413.591 388.154 414.176C389.309 414.995 389.888 416.133 389.888 417.561C389.888 418.838 389.286 419.923 388.079 420.828C386.867 421.712 385.499 422.105 383.946 422.009C386.361 425.342 389.127 428.022 392.229 430.088Z" fill="white"/>
<path d="M381.553 420.509L381.771 420.531C382.755 420.605 383.612 420.595 384.293 420.509C385.223 420.404 385.936 420.085 386.488 419.509C387.016 418.966 387.271 418.338 387.264 417.635C387.223 416.922 386.952 416.305 386.416 415.783C385.876 415.294 385.153 414.953 384.26 414.772C383.766 414.677 382.857 414.622 381.553 414.613V420.509ZM384.825 413.697C385.778 413.931 386.59 414.347 387.223 414.942C387.972 415.689 388.378 416.571 388.426 417.605C388.452 418.636 388.079 419.541 387.323 420.316C387 420.668 386.613 420.944 386.191 421.169C386.728 420.979 387.245 420.711 387.724 420.351C388.782 419.573 389.309 418.647 389.309 417.56C389.309 416.317 388.807 415.369 387.819 414.655C387.112 414.145 386.105 413.825 384.825 413.697ZM379.329 429.515H380.501C380.419 429.045 380.392 428.438 380.392 427.661V413.633H379.329C379.404 414.103 379.436 414.719 379.436 415.495V427.661C379.436 428.438 379.404 429.045 379.329 429.515ZM389.112 429.515H390.398C387.85 427.577 385.531 425.183 383.483 422.351L383.038 421.743H382.504C384.473 424.341 385.594 425.789 385.839 426.109C386.77 427.227 387.873 428.365 389.112 429.515ZM394.165 430.672H388.66L388.495 430.525C387.149 429.289 385.952 428.055 384.936 426.843C384.675 426.523 383.559 425.053 381.553 422.415V427.661C381.553 429.131 381.702 429.662 381.78 429.842L382.155 430.672H377.67L378.048 429.854C378.127 429.662 378.267 429.131 378.267 427.661V415.495C378.267 414.006 378.127 413.484 378.048 413.292L377.67 412.473H381.606C383.372 412.473 384.419 412.495 384.781 412.526C386.341 412.654 387.601 413.048 388.495 413.697C389.807 414.634 390.474 415.933 390.474 417.56C390.474 419.028 389.788 420.275 388.426 421.287C387.425 422.021 386.314 422.456 385.101 422.575C387.303 425.427 389.807 427.778 392.559 429.609L394.165 430.672Z" fill="white"/>
<path fill-rule="evenodd" clip-rule="evenodd" d="M177.354 72.9724H129.05L223.172 155.349H259.684L177.354 72.9724Z" fill="white"/>
<path fill-rule="evenodd" clip-rule="evenodd" d="M284.484 94.1744V130.697L366.809 48.3262V0L284.484 94.1744Z" fill="white"/>
<path fill-rule="evenodd" clip-rule="evenodd" d="M202.146 0V48.3262L284.484 130.697V94.1744L202.146 0Z" fill="white"/>
<path fill-rule="evenodd" clip-rule="evenodd" d="M202.146 295.553V308.081L284.484 213.915V205.475L202.491 295.862L202.146 295.553Z" fill="white"/>
<path fill-rule="evenodd" clip-rule="evenodd" d="M202.146 259.759V290.497L284.484 199.727V177.386L202.146 259.759Z" fill="white"/>
<path fill-rule="evenodd" clip-rule="evenodd" d="M284.484 205.469V205.474V213.914L366.809 308.081V295.553L366.468 295.862L284.484 205.469Z" fill="white"/>
<path fill-rule="evenodd" clip-rule="evenodd" d="M284.484 177.386V199.722L366.809 290.487V259.759L284.484 177.386Z" fill="white"/>
<path fill-rule="evenodd" clip-rule="evenodd" d="M259.684 155.353V155.349H223.172V155.353L129.05 237.724H177.354L259.684 155.353Z" fill="white"/>
<path fill-rule="evenodd" clip-rule="evenodd" d="M342.862 155.349H306.347L388.68 237.724H436.977L342.862 155.349Z" fill="white"/>
<path fill-rule="evenodd" clip-rule="evenodd" d="M436.977 72.9786H388.68L306.347 155.349H342.862L436.977 72.9786Z" fill="white"/>
<path d="M412.374 1.54289H404.88V22.0145H403.085V1.54289H395.333V0H412.374V1.54289ZM426.492 19.3826H426.579L434.77 0H436.977V22.0145H435.162V3.52456L435.075 3.50896L427.182 22.0145H425.888L417.816 3.05502L417.729 3.07018V22.0145H415.912V0H418.331L426.492 19.3826Z" fill="white"/>
</svg>
