<svg width="200" height="200" viewBox="0 0 200 200" fill="none" xmlns="http://www.w3.org/2000/svg">
<path fill-rule="evenodd" clip-rule="evenodd" d="M31.3736 47.3721H0L61.1328 100.849H84.8471L31.3736 47.3721Z" fill="white"/>
<path fill-rule="evenodd" clip-rule="evenodd" d="M100.955 61.1361V84.846L154.426 31.3724V0L100.955 61.1361Z" fill="white"/>
<path fill-rule="evenodd" clip-rule="evenodd" d="M47.4761 0V31.3724L100.955 84.846V61.1361L47.4761 0Z" fill="white"/>
<path fill-rule="evenodd" clip-rule="evenodd" d="M47.4761 191.867V200L100.955 138.869V133.391L47.7 192.068L47.4761 191.867Z" fill="white"/>
<path fill-rule="evenodd" clip-rule="evenodd" d="M47.4761 168.63V188.585L100.955 129.659V115.155L47.4761 168.63Z" fill="white"/>
<path fill-rule="evenodd" clip-rule="evenodd" d="M100.955 133.386V133.389V138.868L154.426 200V191.867L154.204 192.067L100.955 133.386Z" fill="white"/>
<path fill-rule="evenodd" clip-rule="evenodd" d="M100.955 115.155V129.656L154.426 188.578V168.63L100.955 115.155Z" fill="white"/>
<path fill-rule="evenodd" clip-rule="evenodd" d="M84.8471 100.852V100.849H61.1328V100.852L0 154.325H31.3736L84.8471 100.852Z" fill="white"/>
<path fill-rule="evenodd" clip-rule="evenodd" d="M138.872 100.849H115.155L168.631 154.325H200L138.872 100.849Z" fill="white"/>
<path fill-rule="evenodd" clip-rule="evenodd" d="M200 47.376H168.631L115.155 100.849H138.872L200 47.376Z" fill="white"/>
<path d="M184.02 1.00161H179.153V14.2914H177.987V1.00161H172.952V0H184.02V1.00161ZM193.189 12.5828H193.246L198.566 0H200V14.2914H198.821V2.28807L198.764 2.27795L193.638 14.2914H192.797L187.554 1.98326L187.498 1.9931V14.2914H186.318V0H187.889L193.189 12.5828Z" fill="white"/>
</svg>
