<svg width="495" height="493" viewBox="0 0 495 493" fill="none" xmlns="http://www.w3.org/2000/svg">
<path d="M137.284 431.432V415.021H131.424V411.669H147.124V415.021H141.278V431.432H137.284Z" fill="white"/>
<path d="M149.715 431.432V411.669H153.699V419.442H161.51V411.669H165.508V431.432H161.51V422.786H153.699V431.432H149.715Z" fill="white"/>
<path d="M169.632 431.432V411.669H184.273V415.021H173.612V419.396H183.531V422.721H173.612V428.097H184.649V431.432H169.632Z" fill="white"/>
<path d="M195.739 431.432V411.669H199.611L207.705 424.865V411.669H211.416V431.432H207.404L199.444 418.541V431.432H195.739Z" fill="white"/>
<path d="M215.623 431.432V411.669H230.273V415.021H219.616V419.396H229.535V422.721H219.616V428.097H230.654V431.432H215.623Z" fill="white"/>
<path d="M232.029 431.432L238.777 421.114L232.651 411.669H237.318L241.279 418.02L245.156 411.669H249.786L243.642 421.263L250.385 431.432H245.579L241.204 424.596L236.807 431.432H232.029Z" fill="white"/>
<path d="M256.886 431.432V415.021H251.025V411.669H266.716V415.021H260.87V431.432H256.886Z" fill="white"/>
<path d="M277.067 431.432V411.835H281.051V428.097H290.971V431.432H277.067Z" fill="white"/>
<path d="M293.821 431.432V411.669H308.467V415.021H297.805V419.396H307.719V422.721H297.805V428.097H308.845V431.432H293.821Z" fill="white"/>
<path d="M317.258 431.432L310.203 411.669H314.522L319.523 426.286L324.367 411.669H328.598L321.525 431.432H317.258Z" fill="white"/>
<path d="M330.623 431.432V411.669H345.281V415.021H334.62V419.396H344.54V422.721H334.62V428.097H345.645V431.432H330.623Z" fill="white"/>
<path d="M349.146 431.432V411.835H353.129V428.097H363.045V431.432H349.146Z" fill="white"/>
<path d="M108.833 299.218H127.891V300.602C126.776 300.694 125.82 300.806 125.021 300.926C124.223 301.047 123.437 301.29 122.657 301.651C121.877 302.023 121.047 302.562 120.149 303.295C119.249 304.02 118.144 305.014 116.838 306.276L103.02 319.956L119.969 338.14C121.129 339.45 122.179 340.602 123.131 341.595C124.073 342.589 124.978 343.415 125.861 344.067C126.729 344.726 127.612 345.227 128.517 345.553C129.414 345.906 130.371 346.035 131.388 345.998V347.373H109.194V345.998C111.132 345.906 112.473 345.775 113.198 345.627C113.926 345.487 114.294 345.004 114.294 344.178C114.294 343.592 113.917 342.756 113.167 341.67C112.404 340.575 111.523 339.413 110.505 338.178C109.484 336.934 108.444 335.754 107.385 334.611C106.306 333.469 105.467 332.587 104.835 331.955L97.1264 324.311L95.2264 325.845V339.45C95.2264 340.714 95.3012 341.754 95.4505 342.579C95.5945 343.407 95.8957 344.057 96.3614 344.539C96.8198 345.023 97.4839 345.375 98.3573 345.588C99.2304 345.811 100.372 345.951 101.774 345.998V347.373H81.2637V345.998C82.6666 345.951 83.8077 345.811 84.6811 345.588C85.5583 345.375 86.2224 345.004 86.6824 344.466C87.1424 343.936 87.4492 343.211 87.5932 342.283C87.741 341.363 87.8117 340.147 87.8117 338.642V307.149C87.8117 305.738 87.6998 304.633 87.4814 303.806C87.2637 302.97 86.9012 302.349 86.3906 301.911C85.88 301.474 85.197 301.168 84.3572 301.002C83.5064 300.834 82.4758 300.694 81.2637 300.602V299.218H101.924V300.602C100.516 300.694 99.3786 300.843 98.5013 301.038C97.6332 301.234 96.9491 301.559 96.4717 302.023C95.98 302.478 95.6493 303.11 95.4785 303.909C95.3159 304.706 95.2264 305.794 95.2264 307.149V322.055C99.3506 318.378 102.643 315.414 105.091 313.187C107.533 310.958 109.409 309.174 110.694 307.837C111.972 306.508 112.808 305.497 113.198 304.818C113.588 304.139 113.788 303.481 113.788 302.858C113.788 301.883 113.407 301.29 112.655 301.077C111.897 300.861 110.625 300.694 108.833 300.602V299.218Z" fill="white"/>
<path d="M146.154 322.417C147.171 322.417 148.3 322.408 149.53 322.352C150.774 322.307 152.018 322.167 153.282 321.953C154.545 321.74 155.77 321.405 156.956 320.969C158.143 320.532 159.198 319.929 160.122 319.149C161.042 318.379 161.785 317.393 162.337 316.205C162.9 315.016 163.178 313.549 163.178 311.803C163.178 309.378 162.666 307.501 161.645 306.165C160.633 304.836 159.43 303.852 158.052 303.221C156.668 302.589 155.274 302.209 153.862 302.097C152.456 301.966 151.391 301.911 150.663 301.911C148.717 301.911 147.487 302.079 146.953 302.413C146.418 302.757 146.154 303.463 146.154 304.53V322.417ZM179.254 347.373H167.544L150.226 324.972L146.154 325.112V339.449C146.154 340.659 146.229 341.669 146.373 342.469C146.521 343.268 146.803 343.927 147.245 344.439C147.682 344.94 148.337 345.31 149.21 345.553C150.087 345.803 151.247 345.951 152.702 345.999V347.373H132.547V345.999C134.002 345.905 135.154 345.72 136.008 345.449C136.853 345.189 137.47 344.773 137.861 344.216C138.246 343.659 138.491 342.933 138.585 342.032C138.686 341.132 138.729 340.007 138.729 338.643V307.149C138.729 305.793 138.645 304.707 138.478 303.908C138.312 303.111 137.99 302.488 137.53 302.06C137.066 301.623 136.44 301.308 135.636 301.112C134.842 300.917 133.812 300.741 132.547 300.603V299.219H152.623C154.229 299.219 156.092 299.348 158.227 299.617C160.369 299.888 162.387 300.472 164.301 301.364C166.22 302.265 167.839 303.547 169.14 305.219C170.454 306.889 171.109 309.137 171.109 311.943C171.109 314.375 170.598 316.353 169.577 317.877C168.565 319.408 167.334 320.607 165.907 321.48C164.473 322.352 163.016 322.965 161.544 323.337C160.062 323.7 158.86 323.979 157.939 324.172L172.92 342.58C173.742 343.547 174.638 344.335 175.575 344.94C176.527 345.544 177.749 345.905 179.254 345.999V347.373Z" fill="white"/>
<path d="M219.987 347.373H180.708V345.998C181.869 345.952 182.853 345.841 183.656 345.673C184.455 345.506 185.114 345.189 185.621 344.726C186.126 344.261 186.489 343.621 186.708 342.793C186.93 341.968 187.037 340.862 187.037 339.45V307.149C187.037 305.691 186.93 304.549 186.708 303.722C186.489 302.905 186.126 302.274 185.621 301.838C185.114 301.401 184.455 301.113 183.656 300.964C182.853 300.825 181.869 300.694 180.708 300.602V299.218H219.338L219.555 309.621H217.736C217.443 308.022 217.095 306.713 216.686 305.691C216.268 304.678 215.65 303.9 214.823 303.369C214.002 302.832 212.947 302.468 211.662 302.274C210.375 302.078 208.713 301.986 206.683 301.986H196.858C196.077 301.986 195.487 302.097 195.074 302.31C194.661 302.523 194.457 303.238 194.457 304.456V320.606H205.662C207.259 320.606 208.546 320.486 209.521 320.244C210.488 319.994 211.234 319.613 211.773 319.083C212.307 318.545 212.702 317.84 212.975 316.965C213.237 316.093 213.467 314.997 213.663 313.697H215.339V330.572H213.663C213.413 329.114 213.157 327.943 212.865 327.042C212.572 326.152 212.149 325.456 211.593 324.972C211.036 324.48 210.278 324.145 209.336 323.958C208.393 323.754 207.162 323.662 205.662 323.662L194.457 323.513V341.56C194.457 342.284 194.517 342.858 194.643 343.268C194.759 343.677 195.162 343.982 195.841 344.178C196.518 344.373 197.582 344.494 199.036 344.54C200.498 344.586 202.583 344.614 205.299 344.614C207.58 344.614 209.539 344.455 211.193 344.139C212.841 343.825 214.266 343.305 215.48 342.58C216.695 341.846 217.749 340.881 218.646 339.665C219.542 338.455 220.405 336.924 221.227 335.085H223.266L219.987 347.373Z" fill="white"/>
<path d="M239.268 341.698C239.268 342.961 239.56 343.779 240.141 344.14C240.722 344.504 241.887 344.688 243.633 344.688C244.408 344.688 245.5 344.652 246.907 344.577C248.315 344.504 249.851 344.27 251.528 343.89C253.204 343.491 254.912 342.877 256.658 342.032C258.4 341.177 259.979 339.97 261.385 338.392C262.792 336.813 263.948 334.825 264.845 332.429C265.741 330.024 266.187 327.052 266.187 323.513C266.187 320.457 265.685 317.513 264.697 314.681C263.699 311.838 261.938 309.285 259.422 307.001C258.552 306.229 257.615 305.524 256.621 304.893C255.623 304.261 254.476 303.722 253.167 303.295C251.852 302.858 250.352 302.514 248.657 302.274C246.959 302.032 244.966 301.91 242.685 301.91C241.813 301.91 241.149 301.996 240.689 302.163C240.224 302.338 239.891 302.544 239.667 302.784C239.454 303.025 239.328 303.333 239.305 303.685C239.282 304.057 239.268 304.409 239.268 304.744V341.698ZM225.453 345.998C226.809 345.95 227.906 345.812 228.76 345.589C229.609 345.376 230.264 345.022 230.719 344.54C231.179 344.057 231.486 343.406 231.625 342.58C231.777 341.755 231.852 340.714 231.852 339.449V307.149C231.852 305.793 231.777 304.707 231.625 303.908C231.486 303.11 231.192 302.478 230.756 302.022C230.324 301.56 229.684 301.233 228.829 301.038C227.98 300.842 226.856 300.695 225.453 300.602V299.218H245.091C249.456 299.218 253.423 299.71 256.984 300.704C260.549 301.708 263.601 303.202 266.145 305.218C268.704 307.233 270.659 309.76 272.044 312.786C273.432 315.815 274.119 319.362 274.119 323.448C274.119 325.873 273.705 328.473 272.883 331.269C272.056 334.055 270.585 336.645 268.481 339.052C266.368 341.448 263.503 343.445 259.895 345.013C256.281 346.593 251.686 347.373 246.112 347.373H225.453V345.998Z" fill="white"/>
<path d="M316.96 347.373H277.68V345.998C278.845 345.952 279.83 345.841 280.63 345.673C281.423 345.506 282.078 345.189 282.584 344.726C283.099 344.261 283.462 343.621 283.684 342.793C283.898 341.968 284.01 340.862 284.01 339.45V307.149C284.01 305.691 283.898 304.549 283.684 303.722C283.462 302.905 283.099 302.274 282.584 301.838C282.078 301.401 281.423 301.113 280.63 300.964C279.83 300.825 278.845 300.694 277.68 300.602V299.218H316.311L316.529 309.621H314.712C314.416 308.022 314.068 306.713 313.659 305.691C313.241 304.678 312.619 303.9 311.801 303.369C310.974 302.832 309.916 302.468 308.631 302.274C307.344 302.078 305.685 301.986 303.648 301.986H293.83C293.06 301.986 292.456 302.097 292.047 302.31C291.635 302.523 291.431 303.238 291.431 304.456V320.606H302.631C304.237 320.606 305.524 320.486 306.488 320.244C307.46 319.994 308.21 319.613 308.741 319.083C309.271 318.545 309.675 317.84 309.944 316.965C310.209 316.093 310.436 314.997 310.632 313.697H312.308V330.572H310.632C310.395 329.114 310.125 327.943 309.832 327.042C309.54 326.152 309.122 325.456 308.56 324.972C308.008 324.48 307.256 324.145 306.304 323.958C305.365 323.754 304.135 323.662 302.631 323.662L291.431 323.513V341.56C291.431 342.284 291.489 342.858 291.616 343.268C291.732 343.677 292.136 343.982 292.809 344.178C293.491 344.373 294.555 344.494 296.013 344.54C297.466 344.586 299.55 344.614 302.268 344.614C304.542 344.614 306.512 344.455 308.165 344.139C309.805 343.825 311.244 343.305 312.461 342.58C313.662 341.846 314.721 340.881 315.619 339.665C316.514 338.455 317.375 336.924 318.201 335.085H320.238L316.96 347.373Z" fill="white"/>
<path d="M336.087 322.417C337.118 322.417 338.242 322.408 339.477 322.352C340.713 322.307 341.966 322.167 343.225 321.953C344.483 321.74 345.708 321.405 346.897 320.969C348.086 320.532 349.141 319.929 350.059 319.149C350.985 318.379 351.726 317.393 352.283 316.205C352.841 315.016 353.125 313.549 353.125 311.803C353.125 309.378 352.61 307.501 351.598 306.165C350.575 304.836 349.373 303.852 347.994 303.221C346.606 302.589 345.217 302.209 343.805 302.097C342.398 301.966 341.335 301.911 340.606 301.911C338.661 301.911 337.43 302.079 336.895 302.413C336.362 302.757 336.087 303.463 336.087 304.53V322.417ZM369.197 347.373H357.486L340.173 324.972L336.087 325.112V339.449C336.087 340.659 336.171 341.669 336.315 342.469C336.458 343.268 336.747 343.927 337.193 344.439C337.625 344.94 338.279 345.31 339.153 345.553C340.03 345.803 341.19 345.951 342.645 345.999V347.373H322.491V345.999C323.945 345.905 325.097 345.72 325.946 345.449C326.799 345.189 327.412 344.773 327.803 344.216C328.193 343.659 328.435 342.933 328.533 342.032C328.63 341.132 328.675 340.007 328.675 338.643V307.149C328.675 305.793 328.592 304.707 328.42 303.908C328.249 303.111 327.934 302.488 327.478 302.06C327.008 301.623 326.387 301.308 325.583 301.112C324.78 300.917 323.754 300.741 322.491 300.603V299.219H342.574C344.171 299.219 346.034 299.348 348.171 299.617C350.306 299.888 352.331 300.472 354.243 301.364C356.162 302.265 357.769 303.547 359.082 305.219C360.396 306.889 361.053 309.137 361.053 311.943C361.053 314.375 360.54 316.353 359.519 317.877C358.506 319.408 357.276 320.607 355.846 321.48C354.415 322.352 352.967 322.965 351.481 323.337C350.005 323.7 348.802 323.979 347.878 324.172L362.873 342.58C363.694 343.547 364.575 344.335 365.518 344.94C366.47 345.544 367.697 345.905 369.197 345.999V347.373Z" fill="white"/>
<path d="M409.931 347.373H370.65V345.998C371.815 345.952 372.791 345.841 373.594 345.673C374.398 345.506 375.058 345.189 375.563 344.726C376.07 344.261 376.44 343.621 376.65 342.793C376.867 341.968 376.985 340.862 376.985 339.45V307.149C376.985 305.691 376.867 304.549 376.65 303.722C376.44 302.905 376.07 302.274 375.563 301.838C375.058 301.401 374.398 301.113 373.594 300.964C372.791 300.825 371.815 300.694 370.65 300.602V299.218H409.276L409.494 309.621H407.679C407.386 308.022 407.038 306.713 406.628 305.691C406.211 304.678 405.594 303.9 404.767 303.369C403.946 302.832 402.891 302.468 401.61 302.274C400.318 302.078 398.66 301.986 396.626 301.986H386.8C386.024 301.986 385.426 302.097 385.016 302.31C384.609 302.523 384.4 303.238 384.4 304.456V320.606H395.604C397.202 320.606 398.489 320.486 399.463 320.244C400.43 319.994 401.182 319.613 401.717 319.083C402.25 318.545 402.645 317.84 402.914 316.965C403.179 316.093 403.41 314.997 403.606 313.697H405.274V330.572H403.606C403.365 329.114 403.099 327.943 402.807 327.042C402.514 326.152 402.092 325.456 401.535 324.972C400.978 324.48 400.226 324.145 399.274 323.958C398.331 323.754 397.104 323.662 395.604 323.662L384.4 323.513V341.56C384.4 342.284 384.456 342.858 384.581 343.268C384.702 343.677 385.1 343.982 385.784 344.178C386.461 344.373 387.534 344.494 388.987 344.54C390.442 344.586 392.526 344.614 395.238 344.614C397.522 344.614 399.482 344.455 401.135 344.139C402.784 343.825 404.214 343.305 405.426 342.58C406.643 341.846 407.687 340.881 408.583 339.665C409.481 338.455 410.348 336.924 411.171 335.085H413.204L409.931 347.373Z" fill="white"/>
<path d="M354.955 373.089H353.845V362.483H354.955V373.089Z" fill="white"/>
<path d="M413.468 368.343H354.411V367.229H413.468V368.343Z" fill="white"/>
<path d="M140.629 373.089H139.505V362.483H140.629V373.089Z" fill="white"/>
<path d="M140.053 368.343H80.9995V367.22H140.053V368.343Z" fill="white"/>
<path d="M177.782 360.412C177.406 360.858 177.187 361.127 177.127 361.248C176.899 361.546 176.663 361.982 176.403 362.556L170.477 375.503H170.241L164.697 363.392L159.166 375.503H158.915L152.994 362.548C152.67 361.824 152.182 361.127 151.527 360.412H154.026L159.518 372.42L165.017 360.412H165.351L170.845 372.44L176.334 360.412H177.782Z" fill="white"/>
<path d="M152.613 360.922C152.952 361.395 153.24 361.861 153.462 362.325L159.036 374.538L159.481 373.562L153.7 360.922H152.613ZM164.737 362.241L170.361 374.538L170.803 373.581L165.179 361.276L164.737 362.241ZM170.803 376.005H169.911L164.696 364.61L159.49 376.005H158.598L152.535 362.752C152.242 362.093 151.777 361.434 151.15 360.765L150.361 359.91H154.364L159.518 371.185L164.692 359.91H165.676L170.844 371.213L176.002 359.91H178.868L178.162 360.746C177.67 361.332 177.583 361.47 177.577 361.498C177.336 361.814 177.104 362.224 176.872 362.761L170.803 376.005Z" fill="white"/>
<path d="M188.495 374.036L188.035 375.281H179.124C179.277 374.928 179.369 374.222 179.369 373.164V362.548C179.369 361.48 179.277 360.774 179.124 360.412H187.683L188.235 361.583C187.627 361.369 186.832 361.267 185.871 361.267H181.218V366.152H187.264L186.953 366.997H181.218V374.436H186.228C186.944 374.436 187.696 374.296 188.495 374.036Z" fill="white"/>
<path d="M179.783 374.779H180.713V360.922H179.774C179.849 361.331 179.877 361.87 179.877 362.547V373.163C179.877 373.842 179.849 374.37 179.783 374.779ZM188.388 375.791H178.335L178.659 375.076C178.738 374.91 178.859 374.445 178.859 373.163V362.547C178.859 361.249 178.738 360.793 178.659 360.626L178.348 359.911H187.994L189.214 362.465L188.067 362.075C187.515 361.879 186.772 361.767 185.871 361.767H181.734V365.641H187.994L187.306 367.507H181.734V373.934H186.228C186.883 373.934 187.584 373.805 188.337 373.554L189.331 373.219L188.388 375.791Z" fill="white"/>
<path d="M197.991 368.696L195.507 363.281L193.021 368.696H197.991ZM203.497 375.28H201L198.474 369.764H192.54L190.013 375.28H188.573C188.912 374.863 189.145 374.584 189.241 374.463C189.451 374.148 189.679 373.712 189.943 373.136L195.859 360.199H196.105L202.026 373.164C202.356 373.869 202.839 374.575 203.497 375.28Z" fill="white"/>
<path d="M193.816 368.195H197.183L195.507 364.507L193.816 368.195ZM201.316 374.779H202.411C202.059 374.315 201.78 373.841 201.562 373.368L195.985 361.173L195.535 362.14L198.776 369.208L192.275 369.253H198.799L201.316 374.779ZM204.668 375.791H200.66L198.139 370.276H192.87L190.339 375.791H187.483L188.179 374.965C188.518 374.548 188.74 374.269 188.839 374.148C189.006 373.888 189.238 373.469 189.479 372.941L195.535 359.697H196.435L202.495 372.949C202.788 373.609 203.252 374.269 203.879 374.937L204.668 375.791Z" fill="white"/>
<path d="M214.383 374.036L213.923 375.281H205.012C205.184 374.928 205.259 374.222 205.259 373.164V362.548C205.259 361.48 205.184 360.774 205.012 360.412H207.358C207.186 360.774 207.105 361.48 207.105 362.548V374.436H212.127C212.827 374.436 213.584 374.296 214.383 374.036Z" fill="white"/>
<path d="M205.676 374.779H206.604V362.547C206.604 361.87 206.632 361.331 206.688 360.922H205.676C205.732 361.331 205.76 361.87 205.76 362.547V373.163C205.76 373.842 205.732 374.37 205.676 374.779ZM214.286 375.791H204.236L204.562 375.076C204.631 374.91 204.747 374.445 204.747 373.163V362.547C204.747 361.249 204.631 360.793 204.547 360.626L204.236 359.911H208.147L207.822 360.626C207.743 360.793 207.622 361.249 207.622 362.547V373.934H212.126C212.767 373.934 213.482 373.805 214.22 373.554L215.232 373.219L214.286 375.791Z" fill="white"/>
<path d="M225.18 361.583C224.562 361.369 223.79 361.267 222.825 361.267H218.933V373.164C218.933 374.221 219.017 374.928 219.152 375.28H216.845C217.012 374.928 217.091 374.221 217.091 373.164V361.267H213.185C212.22 361.267 211.434 361.369 210.821 361.583L211.379 360.412H224.622L225.18 361.583Z" fill="white"/>
<path d="M217.503 374.779H218.511C218.451 374.37 218.427 373.842 218.427 373.163V360.922H217.591V373.163C217.591 373.842 217.563 374.37 217.503 374.779ZM219.918 375.791H216.05L216.375 375.067C216.454 374.91 216.575 374.445 216.575 373.163V361.767H213.184C212.283 361.767 211.546 361.879 210.988 362.075L209.846 362.465L211.054 359.911H224.943L226.159 362.465L225.017 362.075C224.455 361.879 223.726 361.767 222.824 361.767H219.449V373.163C219.449 374.463 219.56 374.927 219.63 375.085L219.918 375.791Z" fill="white"/>
<path d="M240.643 375.28H238.302C238.46 374.927 238.549 374.222 238.549 373.163V366.783H229.005V373.163C229.005 374.222 229.085 374.927 229.252 375.28H226.912C227.069 374.927 227.153 374.222 227.153 373.163V362.547C227.153 361.479 227.069 360.774 226.912 360.412H229.252C229.085 360.774 229.005 361.479 229.005 362.547V365.938H238.549V362.547C238.549 361.479 238.46 360.774 238.302 360.412H240.643C240.476 360.774 240.396 361.479 240.396 362.547V373.163C240.396 374.222 240.476 374.927 240.643 375.28Z" fill="white"/>
<path d="M227.571 374.779H228.588C228.537 374.37 228.499 373.842 228.499 373.163V362.547C228.499 361.87 228.537 361.331 228.588 360.922H227.557C227.636 361.331 227.659 361.87 227.659 362.547V373.163C227.659 373.842 227.636 374.37 227.571 374.779ZM238.966 374.779H239.979C239.923 374.37 239.891 373.842 239.891 373.163V362.547C239.891 361.87 239.923 361.331 239.979 360.922H238.948C239.027 361.331 239.055 361.87 239.055 362.547V373.163C239.055 373.842 239.027 374.37 238.966 374.779ZM241.432 375.791H237.517L237.837 375.076C237.912 374.91 238.037 374.445 238.037 373.163V367.294H229.516V373.163C229.516 374.445 229.637 374.91 229.707 375.067L230.041 375.791H226.117L226.447 375.076C226.521 374.91 226.643 374.445 226.643 373.163V362.547C226.643 361.249 226.521 360.793 226.447 360.626L226.127 359.911H230.032L229.711 360.626C229.637 360.793 229.516 361.249 229.516 362.547V365.437H238.037V362.547C238.037 361.249 237.912 360.793 237.837 360.626L237.521 359.911H241.432L241.107 360.626C241.028 360.793 240.907 361.249 240.907 362.547V373.163C240.907 374.445 241.028 374.91 241.101 375.067L241.432 375.791Z" fill="white"/>
<path d="M261.712 364.647C261.712 366.004 261.177 367.08 260.118 367.88C259.181 368.565 258.016 368.909 256.649 368.909C255.865 368.909 255.13 368.788 254.466 368.529L254.992 367.916C255.48 368.028 255.944 368.083 256.389 368.083C257.461 368.083 258.34 367.768 259.009 367.126C259.658 366.532 259.974 365.789 259.974 364.897C259.974 362.939 258.944 361.785 256.872 361.414C256.325 361.313 255.336 361.267 253.905 361.267V373.164C253.905 374.222 253.984 374.928 254.156 375.281H251.81C251.968 374.928 252.057 374.222 252.057 373.164V362.548C252.057 361.48 251.968 360.774 251.81 360.412H254.466C256.965 360.412 258.581 360.578 259.282 360.904C260.898 361.657 261.712 362.9 261.712 364.647Z" fill="white"/>
<path d="M254.42 361.777V367.814L254.805 367.341L255.108 367.423C256.557 367.749 257.829 367.554 258.671 366.754C259.213 366.253 259.462 365.659 259.462 364.898C259.462 363.19 258.614 362.242 256.78 361.915C256.337 361.833 255.549 361.786 254.42 361.777ZM257.578 361.043C259.487 361.582 260.485 362.911 260.485 364.898C260.485 365.938 260.105 366.81 259.356 367.498C259.082 367.767 258.767 367.981 258.428 368.158C258.938 367.999 259.408 367.767 259.826 367.461C260.755 366.765 261.205 365.846 261.205 364.646C261.205 363.104 260.504 362.037 259.068 361.369C258.832 361.257 258.392 361.145 257.578 361.043ZM252.47 374.779H253.488C253.432 374.37 253.398 373.842 253.398 373.163V360.922H252.47C252.534 361.331 252.558 361.87 252.558 362.547V373.163C252.558 373.842 252.534 374.37 252.47 374.779ZM254.941 375.791H251.016L251.347 375.076C251.43 374.91 251.541 374.445 251.541 373.163V362.547C251.541 361.249 251.43 360.793 251.347 360.626L251.016 359.911H254.467C257.067 359.911 258.712 360.078 259.487 360.449C261.292 361.275 262.225 362.697 262.225 364.646C262.225 366.161 261.617 367.387 260.429 368.278C259.398 369.03 258.125 369.421 256.649 369.421C255.865 369.421 255.108 369.301 254.42 369.049V373.163C254.42 374.445 254.537 374.91 254.606 375.067L254.941 375.791Z" fill="white"/>
<path d="M268.862 368.696L266.391 363.281L263.907 368.696H268.862ZM274.379 375.28H271.872L269.344 369.764H263.424L260.889 375.28H259.449C259.803 374.863 260.035 374.584 260.117 374.463C260.328 374.148 260.564 373.712 260.824 373.136L266.749 360.199H266.987L272.921 373.164C273.232 373.869 273.724 374.575 274.379 375.28Z" fill="white"/>
<path d="M264.697 368.195H268.077L266.392 364.507L264.697 368.195ZM272.201 374.779H273.296C272.944 374.315 272.661 373.841 272.456 373.368L266.875 361.173L266.429 362.14L269.652 369.208L263.165 369.253H269.674L272.201 374.779ZM275.558 375.791H271.556L269.024 370.276H263.755L261.218 375.791H258.368L259.068 374.965C259.399 374.548 259.621 374.269 259.715 374.148C259.894 373.888 260.105 373.469 260.364 372.941L266.429 359.697H267.316L267.449 359.995L273.385 372.949C273.677 373.609 274.137 374.269 274.751 374.937L275.558 375.791Z" fill="white"/>
<path d="M287.826 375.28H284.91C283.735 374.222 282.714 373.163 281.851 372.114C281.614 371.816 280.475 370.35 278.451 367.684L278.646 367.451C279.561 367.516 280.331 367.507 280.959 367.423C281.878 367.331 282.607 366.987 283.174 366.402C283.735 365.816 284.01 365.158 283.991 364.415C283.967 363.643 283.666 362.984 283.105 362.436C282.56 361.926 281.837 361.583 280.959 361.415C280.425 361.312 279.435 361.266 277.991 361.266V373.163C277.991 374.222 278.071 374.927 278.229 375.28H275.898C276.055 374.927 276.138 374.222 276.138 373.163V362.547C276.138 361.479 276.055 360.774 275.898 360.412H278.553C280.072 360.412 280.976 360.43 281.279 360.457C282.56 360.57 283.55 360.886 284.255 361.396C285.263 362.111 285.77 363.104 285.77 364.35C285.77 365.464 285.248 366.411 284.205 367.2C283.146 367.972 281.943 368.315 280.597 368.231C282.695 371.139 285.11 373.478 287.826 375.28Z" fill="white"/>
<path d="M278.511 366.922L278.689 366.941C279.561 367.006 280.29 366.997 280.894 366.922C281.715 366.83 282.334 366.552 282.807 366.049C283.271 365.576 283.499 365.028 283.484 364.414C283.456 363.792 283.211 363.254 282.751 362.798C282.287 362.372 281.642 362.074 280.862 361.916C280.434 361.833 279.65 361.785 278.511 361.777V366.922ZM281.354 360.978C282.184 361.182 282.895 361.545 283.456 362.064C284.111 362.716 284.455 363.486 284.492 364.388C284.516 365.288 284.206 366.077 283.54 366.754C283.254 367.061 282.932 367.302 282.56 367.498C283.026 367.332 283.471 367.098 283.898 366.784C284.816 366.105 285.263 365.297 285.263 364.349C285.263 363.264 284.84 362.437 283.969 361.814C283.35 361.369 282.472 361.09 281.354 360.978ZM276.551 374.78H277.583C277.518 374.37 277.494 373.841 277.494 373.163V360.922H276.551C276.622 361.332 276.658 361.87 276.658 362.547V373.163C276.658 373.841 276.622 374.37 276.551 374.78ZM285.106 374.78H286.23C284.004 373.089 281.967 371 280.188 368.529L279.807 367.999H279.328C281.06 370.266 282.032 371.529 282.246 371.808C283.058 372.784 284.025 373.777 285.106 374.78ZM289.512 375.79H284.715L284.567 375.662C283.378 374.583 282.343 373.506 281.455 372.449C281.238 372.17 280.254 370.887 278.511 368.585V373.163C278.511 374.445 278.628 374.909 278.703 375.066L279.023 375.79H275.122L275.438 375.076C275.502 374.909 275.632 374.445 275.632 373.163V362.547C275.632 361.248 275.502 360.792 275.438 360.625L275.122 359.91H278.552C280.095 359.91 281 359.929 281.326 359.956C282.691 360.068 283.772 360.412 284.558 360.978C285.706 361.796 286.284 362.929 286.284 364.349C286.284 365.63 285.682 366.718 284.492 367.601C283.628 368.241 282.663 368.621 281.604 368.725C283.522 371.213 285.706 373.265 288.1 374.862L289.512 375.79Z" fill="white"/>
<path d="M300.662 361.583C300.048 361.369 299.254 361.267 298.311 361.267H294.415V373.164C294.415 374.221 294.495 374.928 294.634 375.28H292.322C292.479 374.928 292.563 374.221 292.563 373.164V361.267H288.667C287.706 361.267 286.921 361.369 286.299 361.583L286.861 360.412H300.108L300.662 361.583Z" fill="white"/>
<path d="M292.986 374.779H293.992C293.947 374.37 293.909 373.842 293.909 373.163V360.922H293.073V373.163C293.073 373.842 293.046 374.37 292.986 374.779ZM295.397 375.791H291.537L291.866 375.067C291.931 374.91 292.057 374.445 292.057 373.163V361.767H288.667C287.771 361.767 287.028 361.879 286.475 362.075L285.329 362.465L286.535 359.911H300.419L301.646 362.465L300.499 362.075C299.936 361.879 299.203 361.767 298.311 361.767H294.935V373.163C294.935 374.463 295.042 374.927 295.112 375.085L295.397 375.791Z" fill="white"/>
<path d="M315.878 360.412C315.72 360.792 315.642 361.275 315.642 361.907V375.699H315.396L302.876 363.225V373.795C302.876 374.417 302.961 374.919 303.114 375.28H301.674C301.827 374.919 301.915 374.417 301.915 373.795V359.995H302.156L314.671 372.485V361.907C314.671 361.275 314.597 360.792 314.439 360.412H315.878Z" fill="white"/>
<path d="M302.421 362.046L315.135 374.724V373.646L302.421 360.978V362.046ZM316.162 376.22H315.191L315.038 376.07L303.387 364.442V373.796C303.387 374.352 303.452 374.78 303.586 375.075L303.893 375.792H300.902L301.199 375.085C301.335 374.78 301.403 374.343 301.403 373.796V359.483H302.355L302.523 359.632L314.166 371.25V361.908C314.166 361.35 314.101 360.913 313.97 360.626L313.654 359.91H316.663L316.357 360.626C316.213 360.913 316.162 361.35 316.162 361.908V376.22Z" fill="white"/>
<path d="M328.142 374.036L327.682 375.281H318.777C318.934 374.928 319.007 374.222 319.007 373.164V362.548C319.007 361.48 318.934 360.774 318.777 360.412H327.321L327.869 361.583C327.265 361.369 326.47 361.267 325.514 361.267H320.87V366.152H326.902L326.606 366.997H320.87V374.436H325.881C326.582 374.436 327.336 374.296 328.142 374.036Z" fill="white"/>
<path d="M319.422 374.779H320.359V360.922H319.422C319.501 361.331 319.514 361.87 319.514 362.547V373.163C319.514 373.842 319.501 374.37 319.422 374.779ZM328.035 375.791H317.982L318.317 375.076C318.382 374.91 318.493 374.445 318.493 373.163V362.547C318.493 361.249 318.382 360.793 318.317 360.626L317.982 359.911H327.641L328.857 362.465L327.697 362.075C327.158 361.879 326.414 361.767 325.514 361.767H321.371V365.641H327.641L326.95 367.507H321.371V373.934H325.881C326.521 373.934 327.227 373.805 327.975 373.554L328.983 373.219L328.035 375.791Z" fill="white"/>
<path d="M342.422 375.28H339.505C338.331 374.222 337.323 373.163 336.45 372.114C336.203 371.816 335.075 370.35 333.055 367.684L333.25 367.451C334.157 367.516 334.927 367.507 335.559 367.423C336.469 367.331 337.217 366.987 337.778 366.402C338.331 365.816 338.605 365.158 338.599 364.415C338.554 363.643 338.261 362.984 337.699 362.436C337.151 361.926 336.446 361.583 335.559 361.415C335.034 361.312 334.039 361.266 332.601 361.266V373.163C332.601 374.222 332.678 374.927 332.838 375.28H330.505C330.665 374.927 330.742 374.222 330.742 373.163V362.547C330.742 361.479 330.665 360.774 330.505 360.412H333.149C334.675 360.412 335.581 360.43 335.869 360.457C337.151 360.57 338.154 360.886 338.865 361.396C339.873 362.111 340.378 363.104 340.378 364.35C340.378 365.464 339.853 366.411 338.799 367.2C337.741 367.972 336.547 368.315 335.191 368.231C337.299 371.139 339.714 373.478 342.422 375.28Z" fill="white"/>
<path d="M333.102 366.922L333.292 366.941C334.151 367.006 334.899 366.997 335.494 366.922C336.306 366.83 336.928 366.552 337.41 366.049C337.871 365.576 338.094 365.028 338.088 364.414C338.052 363.792 337.815 363.254 337.347 362.798C336.876 362.372 336.245 362.074 335.465 361.916C335.034 361.833 334.24 361.785 333.102 361.777V366.922ZM335.958 360.978C336.79 361.182 337.499 361.545 338.052 362.064C338.706 362.716 339.06 363.486 339.102 364.388C339.125 365.288 338.799 366.077 338.139 366.754C337.857 367.061 337.519 367.302 337.151 367.498C337.62 367.332 338.071 367.098 338.489 366.784C339.413 366.105 339.873 365.297 339.873 364.349C339.873 363.264 339.435 362.437 338.572 361.814C337.955 361.369 337.076 361.09 335.958 360.978ZM331.16 374.78H332.183C332.112 374.37 332.088 373.841 332.088 373.163V360.922H331.16C331.226 361.332 331.254 361.87 331.254 362.547V373.163C331.254 373.841 331.226 374.37 331.16 374.78ZM339.701 374.78H340.824C338.599 373.089 336.575 371 334.787 368.529L334.398 367.999H333.932C335.651 370.266 336.63 371.529 336.844 371.808C337.656 372.784 338.619 373.777 339.701 374.78ZM344.112 375.79H339.306L339.162 375.662C337.987 374.583 336.942 373.506 336.055 372.449C335.827 372.17 334.853 370.887 333.102 368.585V373.163C333.102 374.445 333.232 374.909 333.3 375.066L333.627 375.79H329.712L330.042 375.076C330.111 374.909 330.233 374.445 330.233 373.163V362.547C330.233 361.248 330.111 360.792 330.042 360.625L329.712 359.91H333.148C334.69 359.91 335.604 359.929 335.92 359.956C337.282 360.068 338.382 360.412 339.162 360.978C340.308 361.796 340.89 362.929 340.89 364.349C340.89 365.63 340.291 366.718 339.102 367.601C338.228 368.241 337.258 368.621 336.199 368.725C338.122 371.213 340.308 373.265 342.71 374.862L344.112 375.79Z" fill="white"/>
<path fill-rule="evenodd" clip-rule="evenodd" d="M154.833 63.6733H112.663L194.833 135.552H226.708L154.833 63.6733Z" fill="white"/>
<path fill-rule="evenodd" clip-rule="evenodd" d="M248.359 82.1734V114.042L320.23 42.1678V0L248.359 82.1734Z" fill="white"/>
<path fill-rule="evenodd" clip-rule="evenodd" d="M176.477 0V42.1678L248.359 114.042V82.1734L176.477 0Z" fill="white"/>
<path fill-rule="evenodd" clip-rule="evenodd" d="M176.477 257.89V268.821L248.359 186.655V179.291L176.778 258.159L176.477 257.89Z" fill="white"/>
<path fill-rule="evenodd" clip-rule="evenodd" d="M176.477 226.657V253.478L248.359 174.275V154.781L176.477 226.657Z" fill="white"/>
<path fill-rule="evenodd" clip-rule="evenodd" d="M248.359 179.285V179.29V186.654L320.23 268.821V257.89L319.932 258.159L248.359 179.285Z" fill="white"/>
<path fill-rule="evenodd" clip-rule="evenodd" d="M248.359 154.781V174.271L320.23 253.469V226.657L248.359 154.781Z" fill="white"/>
<path fill-rule="evenodd" clip-rule="evenodd" d="M226.708 135.556V135.552H194.833V135.556L112.663 207.43H154.833L226.708 135.556Z" fill="white"/>
<path fill-rule="evenodd" clip-rule="evenodd" d="M299.324 135.552H267.446L339.324 207.43H381.488L299.324 135.552Z" fill="white"/>
<path fill-rule="evenodd" clip-rule="evenodd" d="M381.488 63.6787H339.324L267.446 135.552H299.324L381.488 63.6787Z" fill="white"/>
<path d="M11.5948 482.01H4.78638L3.30971 486.494H0L6.70032 467.285H9.74852L16.368 486.494H13.0583L11.5948 482.01ZM5.67343 479.33H10.7259L8.25827 471.761H8.17699L5.67343 479.33ZM28.467 482.064H28.5483L34.1004 467.285H38.1932V486.494H34.9875V472.693L34.9062 472.684L29.6152 486.494H27.4136L22.0324 472.418L21.9515 472.446V486.494H18.7453V467.285H22.9557L28.467 482.064ZM53.1923 478.304H45.4473V486.494H42.2411V467.285H54.5386V469.861H45.4473V475.728H53.1923V478.304ZM60.6716 486.494H57.4654V467.285H60.6716V486.494ZM74.9049 478.525V486.494H71.6987V467.285H78.3092C80.448 467.285 82.1004 467.771 83.2713 468.74C84.4377 469.703 85.0227 471.086 85.0227 472.882C85.0227 473.873 84.7661 474.728 84.2528 475.444C83.7396 476.165 82.9874 476.737 82.0014 477.169C83.0865 477.511 83.8658 478.07 84.3428 478.844C84.8247 479.619 85.0635 480.578 85.0635 481.717V483.316C85.0635 483.878 85.1353 484.428 85.2752 484.963C85.4146 485.499 85.6486 485.909 85.9729 486.193V486.494H82.6768C82.3256 486.206 82.1004 485.751 82.0014 485.135C81.9069 484.522 81.8574 483.906 81.8574 483.288V481.744C81.8574 480.762 81.5735 479.979 81.0062 479.398C80.4389 478.817 79.669 478.525 78.692 478.525H74.9049ZM74.9049 475.953H78.1379C79.4215 475.953 80.358 475.705 80.9476 475.215C81.5376 474.724 81.8305 473.972 81.8305 472.959C81.8305 471.991 81.5422 471.234 80.9612 470.685C80.3803 470.136 79.4978 469.861 78.3092 469.861H74.9049V475.953ZM94.614 486.774C92.5292 486.769 90.8991 486.112 89.7237 484.797C88.5532 483.482 87.9632 481.78 87.9632 479.686V479.159C87.9632 477.065 88.5532 475.341 89.7237 473.981C90.8991 472.621 92.4121 471.946 94.2716 471.955C96.1856 471.955 97.6399 472.549 98.6215 473.733C99.6075 474.913 100.103 476.493 100.103 478.475V480.204H91.2775L91.2502 480.267C91.282 481.438 91.5927 482.388 92.1732 483.117C92.7541 483.847 93.628 484.212 94.7985 484.212C95.6678 484.212 96.424 484.108 97.059 483.896C97.6985 483.685 98.2881 483.383 98.8331 482.987L99.8778 485.081C99.3328 485.558 98.6079 485.959 97.7121 486.283C96.816 486.607 95.7845 486.769 94.614 486.774ZM94.2716 474.53C93.4341 474.53 92.7677 474.832 92.2635 475.431C91.7635 476.034 91.4528 476.822 91.327 477.786L91.3538 477.853H96.9328V477.601C96.9328 476.687 96.7211 475.949 96.2937 475.382C95.8703 474.814 95.1949 474.53 94.2716 474.53ZM102.201 479.556C102.201 477.277 102.687 475.44 103.664 474.049C104.642 472.653 106.01 471.955 107.78 471.955C108.631 471.955 109.383 472.139 110.027 472.504C110.676 472.869 111.225 473.396 111.671 474.08L111.99 472.22H114.652V486.494C114.652 488.332 114.084 489.755 112.95 490.754C111.815 491.758 110.207 492.258 108.122 492.258C107.429 492.258 106.677 492.159 105.875 491.961C105.069 491.763 104.34 491.502 103.692 491.177L104.205 488.656C104.75 488.93 105.358 489.142 106.033 489.3C106.704 489.453 107.393 489.529 108.095 489.529C109.257 489.529 110.108 489.282 110.644 488.782C111.18 488.287 111.445 487.521 111.445 486.494V485.031C111 485.603 110.468 486.035 109.856 486.328C109.248 486.625 108.546 486.769 107.753 486.774C106.002 486.769 104.642 486.134 103.664 484.86C102.687 483.586 102.201 481.906 102.201 479.835V479.556ZM105.394 479.835C105.394 481.15 105.646 482.203 106.159 482.987C106.668 483.77 107.474 484.158 108.573 484.158C109.257 484.158 109.838 484.018 110.306 483.73C110.779 483.446 111.157 483.032 111.445 482.496V476.246C111.148 475.724 110.765 475.318 110.293 475.026C109.824 474.728 109.257 474.58 108.6 474.58C107.497 474.58 106.69 475.044 106.173 475.962C105.65 476.881 105.394 478.079 105.394 479.556V479.835ZM121.419 486.494H118.213V472.22H121.419V486.494ZM121.419 468.726H118.213V465.917H121.419V468.726ZM133.028 482.591C133.028 482.095 132.821 481.69 132.402 481.37C131.983 481.05 131.195 480.762 130.034 480.506C128.354 480.163 127.07 479.655 126.183 478.988C125.292 478.322 124.851 477.421 124.851 476.295C124.851 475.102 125.355 474.08 126.368 473.229C127.376 472.383 128.71 471.955 130.366 471.955C132.069 471.955 133.446 472.396 134.487 473.27C135.527 474.143 136.027 475.197 135.986 476.431L135.959 476.507H132.884C132.884 475.926 132.654 475.422 132.199 474.999C131.74 474.571 131.128 474.359 130.366 474.359C129.592 474.359 129.002 474.535 128.597 474.886C128.192 475.237 127.989 475.67 127.989 476.178C127.989 476.66 128.178 477.048 128.556 477.34C128.935 477.629 129.714 477.89 130.893 478.119C132.641 478.471 133.96 478.984 134.851 479.668C135.738 480.348 136.18 481.262 136.18 482.406C136.18 483.689 135.653 484.738 134.59 485.553C133.532 486.364 132.136 486.769 130.402 486.774C128.547 486.769 127.084 486.296 126.012 485.346C124.936 484.396 124.427 483.306 124.481 482.077L124.508 481.996H127.489C127.525 482.825 127.822 483.424 128.385 483.802C128.948 484.18 129.632 484.369 130.443 484.369C131.263 484.369 131.898 484.207 132.348 483.883C132.803 483.559 133.028 483.126 133.028 482.591ZM143.159 468.753V472.22H145.717V474.594H143.159V482.482C143.159 483.072 143.285 483.495 143.542 483.743C143.799 483.995 144.136 484.121 144.559 484.121C144.735 484.121 144.906 484.104 145.073 484.072C145.239 484.045 145.397 484 145.546 483.951L145.892 486.296C145.618 486.445 145.293 486.562 144.92 486.648C144.546 486.729 144.159 486.769 143.754 486.774C142.574 486.769 141.651 486.427 140.975 485.738C140.304 485.045 139.966 483.96 139.966 482.482V474.594H137.792V472.22H139.966V468.753H143.159ZM154.362 486.774C152.278 486.769 150.647 486.112 149.472 484.797C148.301 483.482 147.711 481.78 147.711 479.686V479.159C147.711 477.065 148.301 475.341 149.472 473.981C150.647 472.621 152.16 471.946 154.02 471.955C155.934 471.955 157.388 472.549 158.37 473.733C159.356 474.913 159.851 476.493 159.851 478.475V480.204H151.026L150.999 480.267C151.03 481.438 151.341 482.388 151.922 483.117C152.502 483.847 153.376 484.212 154.547 484.212C155.416 484.212 156.172 484.108 156.807 483.896C157.447 483.685 158.036 483.383 158.581 482.987L159.626 485.081C159.081 485.558 158.356 485.959 157.46 486.283C156.564 486.607 155.533 486.769 154.362 486.774ZM154.02 474.53C153.182 474.53 152.516 474.832 152.012 475.431C151.512 476.034 151.201 476.822 151.075 477.786L151.102 477.853H156.681V477.601C156.681 476.687 156.469 475.949 156.042 475.382C155.619 474.814 154.943 474.53 154.02 474.53ZM169.559 475.111L168.186 475.057C167.565 475.057 167.042 475.188 166.623 475.453C166.205 475.715 165.885 476.088 165.655 476.575V486.494H162.449V472.22H165.376L165.588 474.292C165.948 473.562 166.412 472.99 166.979 472.576C167.546 472.162 168.2 471.955 168.938 471.955C169.132 471.955 169.311 471.973 169.483 472.004C169.649 472.036 169.802 472.072 169.942 472.117L169.559 475.111ZM177.737 486.774C175.652 486.769 174.022 486.112 172.846 484.797C171.676 483.482 171.086 481.78 171.086 479.686V479.159C171.086 477.065 171.676 475.341 172.846 473.981C174.022 472.621 175.535 471.946 177.394 471.955C179.308 471.955 180.763 472.549 181.744 473.733C182.73 474.913 183.226 476.493 183.226 478.475V480.204H174.4L174.373 480.267C174.405 481.438 174.715 482.388 175.296 483.117C175.877 483.847 176.751 484.212 177.921 484.212C178.791 484.212 179.547 484.108 180.182 483.896C180.821 483.685 181.411 483.383 181.956 482.987L183.001 485.081C182.456 485.558 181.731 485.959 180.835 486.283C179.939 486.607 178.907 486.769 177.737 486.774ZM177.394 474.53C176.557 474.53 175.891 474.832 175.386 475.431C174.886 476.034 174.576 476.822 174.45 477.786L174.477 477.853H180.056V477.601C180.056 476.687 179.844 475.949 179.416 475.382C178.993 474.814 178.318 474.53 177.394 474.53ZM185.229 479.556C185.229 477.277 185.72 475.44 186.693 474.049C187.67 472.653 189.043 471.955 190.808 471.955C191.583 471.955 192.276 472.112 192.889 472.423C193.501 472.738 194.028 473.184 194.478 473.765V465.917H197.684V486.494H195.086L194.703 484.689C194.244 485.364 193.69 485.882 193.042 486.238C192.389 486.594 191.637 486.769 190.786 486.774C189.034 486.769 187.67 486.134 186.693 484.86C185.72 483.586 185.229 481.906 185.229 479.835V479.556ZM188.436 479.835C188.436 481.15 188.688 482.203 189.196 482.987C189.701 483.77 190.502 484.158 191.601 484.158C192.281 484.158 192.853 484.013 193.325 483.725C193.794 483.433 194.181 483.018 194.478 482.482V476.26C194.181 475.728 193.794 475.318 193.316 475.026C192.844 474.728 192.281 474.58 191.628 474.58C190.538 474.58 189.732 475.044 189.214 475.962C188.697 476.881 188.436 478.079 188.436 479.556V479.835ZM217.902 482.064H217.983L223.535 467.285H227.628V486.494H224.422V472.693L224.341 472.684L219.05 486.494H216.848L211.467 472.418L211.386 472.446V486.494H208.18V467.285H212.391L217.902 482.064ZM240.254 484.383C239.813 485.148 239.246 485.738 238.557 486.152C237.868 486.567 237.07 486.769 236.161 486.774C234.635 486.769 233.437 486.269 232.572 485.261C231.712 484.252 231.28 482.69 231.28 480.573V472.22H234.472V480.596C234.472 481.96 234.67 482.897 235.067 483.401C235.463 483.906 236.08 484.158 236.913 484.158C237.687 484.158 238.336 484.022 238.858 483.743C239.385 483.469 239.795 483.063 240.092 482.537V472.22H243.298V486.494H240.542L240.254 484.383ZM250.75 468.753V472.22H253.308V474.594H250.75V482.482C250.75 483.072 250.876 483.495 251.133 483.743C251.39 483.995 251.727 484.121 252.15 484.121C252.326 484.121 252.497 484.104 252.664 484.072C252.83 484.045 252.988 484 253.137 483.951L253.483 486.296C253.209 486.445 252.884 486.562 252.511 486.648C252.137 486.729 251.75 486.769 251.345 486.774C250.165 486.769 249.242 486.427 248.566 485.738C247.895 485.045 247.558 483.96 247.558 482.482V474.594H245.383V472.22H247.558V468.753H250.75ZM264.804 484.383C264.362 485.148 263.795 485.738 263.106 486.152C262.417 486.567 261.62 486.769 260.711 486.774C259.184 486.769 257.986 486.269 257.122 485.261C256.262 484.252 255.829 482.69 255.829 480.573V472.22H259.022V480.596C259.022 481.96 259.22 482.897 259.616 483.401C260.013 483.906 260.629 484.158 261.462 484.158C262.237 484.158 262.885 484.022 263.408 483.743C263.935 483.469 264.344 483.063 264.641 482.537V472.22H267.848V486.494H265.092L264.804 484.383ZM279.798 486.494C279.685 486.134 279.591 485.783 279.515 485.441C279.442 485.094 279.388 484.752 279.366 484.41C278.934 485.076 278.357 485.639 277.637 486.094C276.916 486.544 276.11 486.769 275.223 486.774C273.733 486.769 272.593 486.391 271.796 485.626C271.004 484.86 270.603 483.806 270.603 482.469C270.603 481.091 271.148 480.015 272.238 479.245C273.332 478.475 274.863 478.092 276.844 478.092H279.339V476.836C279.339 476.088 279.118 475.507 278.686 475.084C278.249 474.661 277.619 474.449 276.79 474.449C276.061 474.449 275.48 474.625 275.048 474.972C274.62 475.318 274.404 475.769 274.404 476.323L271.314 476.336L271.301 476.26C271.243 475.134 271.747 474.134 272.814 473.26C273.881 472.392 275.273 471.955 276.988 471.955C278.65 471.955 279.992 472.378 281.014 473.225C282.031 474.067 282.545 475.283 282.545 476.863V483.212C282.545 483.797 282.581 484.365 282.662 484.905C282.743 485.445 282.869 485.977 283.045 486.494H279.798ZM275.881 484.198C276.682 484.198 277.403 483.995 278.051 483.59C278.699 483.189 279.127 482.726 279.339 482.208V480.096H276.79C275.858 480.096 275.128 480.326 274.602 480.789C274.075 481.249 273.809 481.793 273.809 482.419C273.809 482.964 273.989 483.396 274.345 483.716C274.701 484.04 275.214 484.198 275.881 484.198ZM289.313 486.494H286.107V465.917H289.313V486.494ZM310.908 478.304H303.163V486.494H299.957V467.285H312.255V469.861H303.163V475.728H310.908V478.304ZM323.206 484.383C322.765 485.148 322.198 485.738 321.509 486.152C320.82 486.567 320.022 486.769 319.113 486.774C317.586 486.769 316.389 486.269 315.524 485.261C314.664 484.252 314.232 482.69 314.232 480.573V472.22H317.424V480.596C317.424 481.96 317.622 482.897 318.019 483.401C318.415 483.906 319.032 484.158 319.865 484.158C320.639 484.158 321.288 484.022 321.81 483.743C322.337 483.469 322.747 483.063 323.044 482.537V472.22H326.25V486.494H323.494L323.206 484.383ZM332.504 472.22L332.689 474.278C333.153 473.549 333.738 472.982 334.45 472.571C335.156 472.162 335.954 471.955 336.841 471.955C338.331 471.955 339.488 472.414 340.317 473.328C341.15 474.242 341.564 475.674 341.564 477.615V486.494H338.358V477.642C338.358 476.534 338.142 475.746 337.714 475.282C337.282 474.814 336.633 474.58 335.76 474.58C335.076 474.58 334.481 474.71 333.981 474.972C333.477 475.233 333.076 475.589 332.779 476.048V486.494H329.573V472.22H332.504ZM344.306 479.556C344.306 477.277 344.797 475.44 345.77 474.049C346.747 472.653 348.12 471.955 349.885 471.955C350.66 471.955 351.353 472.112 351.965 472.423C352.578 472.738 353.105 473.184 353.555 473.765V465.917H356.761V486.494H354.163L353.78 484.689C353.321 485.364 352.767 485.882 352.119 486.238C351.466 486.594 350.714 486.769 349.863 486.774C348.111 486.769 346.747 486.134 345.77 484.86C344.797 483.586 344.306 481.906 344.306 479.835V479.556ZM347.512 479.835C347.512 481.15 347.765 482.203 348.273 482.987C348.777 483.77 349.579 484.158 350.678 484.158C351.358 484.158 351.93 484.013 352.402 483.725C352.871 483.433 353.258 483.018 353.555 482.482V476.26C353.258 475.728 352.871 475.318 352.393 475.026C351.921 474.728 351.358 474.58 350.705 474.58C349.615 474.58 348.809 475.044 348.291 475.962C347.774 476.881 347.512 478.079 347.512 479.556V479.835ZM367.257 486.494V467.285H373.602C376.038 467.285 378.019 468.046 379.545 469.568C381.072 471.09 381.837 473.049 381.837 475.44V478.353C381.837 480.758 381.072 482.712 379.545 484.225C378.019 485.738 376.038 486.494 373.602 486.494H367.257ZM370.463 469.861V483.937H373.602C375.142 483.937 376.367 483.415 377.272 482.37C378.177 481.33 378.632 479.992 378.632 478.353V475.413C378.632 473.796 378.177 472.463 377.272 471.423C376.367 470.379 375.142 469.861 373.602 469.861H370.463ZM388.448 486.494H385.242V472.22H388.448V486.494ZM388.448 468.726H385.242V465.917H388.448V468.726ZM400.056 482.591C400.056 482.095 399.849 481.69 399.43 481.37C399.012 481.05 398.223 480.762 397.062 480.506C395.382 480.163 394.099 479.655 393.212 478.988C392.32 478.322 391.879 477.421 391.879 476.295C391.879 475.102 392.383 474.08 393.397 473.229C394.405 472.383 395.738 471.955 397.395 471.955C399.097 471.955 400.475 472.396 401.515 473.27C402.555 474.143 403.055 475.197 403.015 476.431L402.988 476.507H399.912C399.912 475.926 399.682 475.422 399.228 474.999C398.769 474.571 398.156 474.359 397.395 474.359C396.621 474.359 396.031 474.535 395.625 474.886C395.22 475.237 395.018 475.67 395.018 476.178C395.018 476.66 395.207 477.048 395.585 477.34C395.963 477.629 396.742 477.89 397.922 478.119C399.669 478.471 400.988 478.984 401.88 479.668C402.767 480.348 403.208 481.262 403.208 482.406C403.208 483.689 402.681 484.738 401.619 485.553C400.561 486.364 399.165 486.769 397.431 486.774C395.576 486.769 394.112 486.296 393.041 485.346C391.965 484.396 391.456 483.306 391.51 482.077L391.537 481.996H394.518C394.554 482.825 394.851 483.424 395.414 483.802C395.977 484.18 396.661 484.369 397.472 484.369C398.291 484.369 398.926 484.207 399.376 483.883C399.831 483.559 400.056 483.126 400.056 482.591ZM410.188 468.753V472.22H412.745V474.594H410.188V482.482C410.188 483.072 410.314 483.495 410.57 483.743C410.827 483.995 411.165 484.121 411.588 484.121C411.764 484.121 411.935 484.104 412.102 484.072C412.268 484.045 412.425 484 412.574 483.951L412.921 486.296C412.646 486.445 412.322 486.562 411.948 486.648C411.575 486.729 411.187 486.769 410.782 486.774C409.602 486.769 408.679 486.427 408.004 485.738C407.333 485.045 406.995 483.96 406.995 482.482V474.594H404.82V472.22H406.995V468.753H410.188ZM422.445 475.111L421.071 475.057C420.45 475.057 419.927 475.188 419.509 475.453C419.09 475.715 418.77 476.088 418.54 476.575V486.494H415.334V472.22H418.261L418.473 474.292C418.833 473.562 419.297 472.99 419.864 472.576C420.432 472.162 421.085 471.955 421.823 471.955C422.017 471.955 422.197 471.973 422.368 472.004C422.535 472.036 422.688 472.072 422.827 472.117L422.445 475.111ZM428.235 486.494H425.029V472.22H428.235V486.494ZM428.235 468.726H425.029V465.917H428.235V468.726ZM444.356 479.835C444.356 481.915 443.869 483.594 442.897 484.864C441.928 486.134 440.555 486.769 438.79 486.774C437.894 486.769 437.115 486.584 436.453 486.215C435.796 485.846 435.246 485.31 434.805 484.608L434.422 486.494H431.824V465.917H435.03V473.841C435.471 473.238 435.998 472.77 436.611 472.446C437.227 472.121 437.944 471.955 438.763 471.955C440.551 471.955 441.928 472.653 442.897 474.039C443.869 475.431 444.356 477.268 444.356 479.556V479.835ZM441.149 479.556C441.149 478.07 440.897 476.867 440.384 475.953C439.875 475.039 439.065 474.58 437.957 474.58C437.246 474.58 436.651 474.742 436.17 475.057C435.692 475.372 435.309 475.814 435.03 476.377V482.365C435.305 482.937 435.679 483.379 436.165 483.689C436.647 484.005 437.255 484.158 437.984 484.158C439.092 484.158 439.898 483.77 440.398 482.991C440.902 482.212 441.149 481.159 441.149 479.835V479.556ZM456.031 484.383C455.59 485.148 455.023 485.738 454.334 486.152C453.645 486.567 452.848 486.769 451.938 486.774C450.412 486.769 449.214 486.269 448.349 485.261C447.49 484.252 447.057 482.69 447.057 480.573V472.22H450.25V480.596C450.25 481.96 450.448 482.897 450.844 483.401C451.24 483.906 451.857 484.158 452.69 484.158C453.465 484.158 454.113 484.022 454.636 483.743C455.162 483.469 455.572 483.063 455.869 482.537V472.22H459.075V486.494H456.32L456.031 484.383ZM466.527 468.753V472.22H469.085V474.594H466.527V482.482C466.527 483.072 466.654 483.495 466.91 483.743C467.167 483.995 467.504 484.121 467.928 484.121C468.104 484.121 468.275 484.104 468.441 484.072C468.608 484.045 468.765 484 468.914 483.951L469.261 486.296C468.986 486.445 468.662 486.562 468.288 486.648C467.915 486.729 467.527 486.769 467.122 486.774C465.942 486.769 465.019 486.427 464.344 485.738C463.673 485.045 463.335 483.96 463.335 482.482V474.594H461.16V472.22H463.335V468.753H466.527ZM471.08 479.227C471.08 477.097 471.665 475.354 472.827 473.995C473.993 472.635 475.587 471.955 477.609 471.955C479.658 471.955 481.265 472.635 482.432 473.995C483.598 475.354 484.179 477.097 484.179 479.227V479.502C484.179 481.65 483.598 483.396 482.432 484.747C481.265 486.098 479.667 486.769 477.636 486.774C475.596 486.769 473.993 486.094 472.827 484.739C471.665 483.387 471.08 481.64 471.08 479.502V479.227ZM474.286 479.502C474.286 480.902 474.561 482.037 475.106 482.906C475.651 483.775 476.492 484.212 477.636 484.212C478.753 484.212 479.59 483.775 480.149 482.901C480.707 482.023 480.986 480.893 480.986 479.502V479.227C480.986 477.862 480.707 476.737 480.149 475.854C479.59 474.972 478.744 474.53 477.609 474.53C476.492 474.53 475.659 474.972 475.11 475.854C474.56 476.737 474.286 477.862 474.286 479.227V479.502ZM494.085 475.111L492.712 475.057C492.09 475.057 491.568 475.188 491.149 475.453C490.73 475.715 490.411 476.088 490.181 476.575V486.494H486.975V472.22H489.902L490.114 474.292C490.474 473.562 490.938 472.99 491.505 472.576C492.072 472.162 492.725 471.955 493.464 471.955C493.657 471.955 493.837 471.973 494.008 472.004C494.175 472.036 494.328 472.072 494.468 472.117L494.085 475.111Z" fill="white"/>
<path d="M360.009 1.34627H353.467V19.2091H351.9V1.34627H345.132V0H360.009V1.34627ZM372.334 16.9126H372.41L379.561 0H381.488V19.2091H379.903V3.07541L379.827 3.0618L372.937 19.2091H371.807L364.76 2.66571L364.684 2.67894V19.2091H363.098V0H365.21L372.334 16.9126Z" fill="white"/>
</svg>
