<svg width="1024" height="1024" viewBox="0 0 1024 1024" fill="none" xmlns="http://www.w3.org/2000/svg">
<rect width="1024" height="1024" rx="200" fill="#2D54FF"/>
<path fill-rule="evenodd" clip-rule="evenodd" d="M429.364 387.374C423.712 389.193 421.207 390.688 416.822 394.857C409.193 402.114 405.867 409.398 405.773 419.056C405.702 426.274 407.066 430.681 411.034 436.056C421.079 449.661 440.478 452.088 454.551 441.498C471.841 428.487 472.413 403.494 455.693 391.556C448.42 386.363 437.766 384.671 429.364 387.374ZM521.615 390.37C510.934 394.091 502.842 403.863 500.987 415.276C499.066 427.095 505.066 438.786 515.726 443.99C533.658 452.745 554.878 441.244 558.377 420.873C560.434 408.904 554.226 396.849 543.225 391.449C539.313 389.528 537.848 389.197 532.429 389.007C527.268 388.825 525.354 389.066 521.615 390.37ZM210.91 397.453C206.755 398.729 202.016 402.966 200.09 407.128C198.951 409.59 196.639 421.843 191.293 453.745C172.634 565.104 166.768 600.448 166.163 605.155C165.396 611.13 166.078 614.463 168.704 617.575C172.37 621.92 173.038 622.047 192.028 622.047C208.689 622.047 209.358 621.995 212.521 620.441C216.565 618.456 220.238 614.28 221.616 610.101C222.718 606.758 224.842 595.01 229.95 564L233.061 545.109L238.709 539.442C241.814 536.325 244.704 533.775 245.129 533.775C245.554 533.775 251.271 544.981 257.834 558.676C280.099 605.143 285.118 615.127 287.169 617.03C288.268 618.049 290.717 619.594 292.611 620.465C295.968 622.007 296.589 622.047 317.068 622.047C336.156 622.047 338.316 621.931 340.653 620.772C344.067 619.08 346.003 615.85 346.003 611.849C346.003 608.049 342.541 600.357 325.999 567.396C313.053 541.602 295.622 505.643 294.309 502.023C293.439 499.624 293.49 499.44 295.709 496.905C298.297 493.95 333.172 457.02 355.512 433.577C371.276 417.036 373.784 413.532 373.81 408.01C373.831 403.665 371.879 400.62 367.702 398.476C364.311 396.736 364.222 396.729 346.366 396.729H328.435L324.44 398.595C319.601 400.856 319.235 401.218 278.241 444.3C260.896 462.53 246.235 477.445 245.662 477.445C244.895 477.445 244.72 476.948 244.996 475.556C245.203 474.517 247.751 459.038 250.657 441.159C256.517 405.112 256.494 405.708 252.213 400.846C248.828 397.002 245.483 396.378 228.588 396.433C218.145 396.468 213.186 396.753 210.91 397.453ZM615.969 396.869C614.969 397.023 612.493 398.137 610.464 399.346C607.382 401.182 606.413 402.275 604.56 406.005C602.143 410.874 603.127 404.065 588.169 519.349C586.134 535.028 582.91 558.986 581.004 572.587C575.69 610.519 575.912 608.418 576.825 612.214C577.923 616.778 580.962 619.879 585.715 621.286C588.9 622.229 593.965 622.391 620.406 622.391C653.88 622.391 659.945 621.939 671.587 618.574C694.802 611.867 711.567 595.077 720.634 569.457C724.63 558.165 727.67 539.572 727.67 526.418C727.67 512.409 724.116 496.716 718.911 487.749C714.951 480.926 706.296 472.654 699.914 469.593C684.692 462.293 666.583 461.75 651.65 468.145C648.528 469.482 645.728 470.575 645.426 470.575C645.124 470.575 645.055 469.417 645.272 467.999C645.49 466.583 647.401 452.613 649.52 436.956C652.966 411.477 653.281 408.168 652.514 405.436C651.39 401.434 648.063 398.173 644.083 397.173C641.156 396.439 620.252 396.213 615.969 396.869ZM415.075 453.748C406.708 455.663 397.315 460.754 392.047 466.233C387.829 470.618 382.646 478.743 380.46 484.395C377.673 491.6 376.47 498.419 370.41 541.331C367.557 561.544 364.152 585.182 362.846 593.859C360.052 612.414 359.908 615.997 361.856 618.466C364.745 622.128 367.297 622.492 388.406 622.26L407.662 622.047L410.869 620.168C416.59 616.814 416.133 619.017 426.644 544.079C431.182 511.718 431.795 509.521 438.194 502.699C444.272 496.221 447.602 495.437 470.699 495.048C484.885 494.809 488.419 494.54 492.851 493.362C499.018 491.723 504.377 489.174 508.266 486.029C517.56 478.512 518.51 460.171 509.69 458.521C508.433 458.286 504.203 458.627 500.289 459.28C489.515 461.076 484.222 460.627 450.72 455.07C437.472 452.871 421.494 452.279 415.075 453.748ZM528.225 453.429C526.709 453.792 524.125 454.588 522.482 455.198C519.253 456.398 519.303 456.113 521.362 461.645C522.233 463.985 522.433 466.184 522.186 470.695C521.59 481.556 515.783 490.378 506.204 494.972L501.317 497.316L498.409 518.808C496.809 530.629 494.715 546.019 493.754 553.009C489.257 585.747 486.545 607.872 486.545 611.828C486.545 615.662 486.782 616.43 488.611 618.507C491.721 622.038 494.248 622.395 515.957 622.361C535.961 622.329 538.668 621.997 541.778 619.193C544.963 616.321 545.641 613.447 549.217 587.644C551.15 573.696 553.34 558.303 554.082 553.44C559.072 520.762 564.473 478.736 564.202 474.697C563.782 468.423 561.549 463.703 557.067 459.619C551.863 454.877 547.296 453.272 538.214 452.992C534.236 452.87 529.74 453.067 528.225 453.429ZM787.607 464.068C762.33 468.02 746.547 481.212 741.331 502.749C737.25 519.594 741.069 534.936 751.87 545.096C757.468 550.362 766.878 555.222 781.062 560.173C797.444 565.891 801.377 568.652 801.382 574.444C801.389 580.157 797.919 583.174 790.681 583.753C782.349 584.42 771.497 581.162 759.036 574.253C747.407 567.805 743.156 567.34 738.029 571.959C731.476 577.862 728.049 594.51 731.694 602.728C736.98 614.641 760.537 623.77 785.972 623.762C799.003 623.758 810.238 621.575 819.876 617.175C829.593 612.739 837.223 606.12 842.383 597.65C850.835 583.777 851.991 562.265 844.975 549.407C839.287 538.982 827.771 531.62 804.485 523.518C799.938 521.936 794.881 519.863 793.247 518.91C787.63 515.638 786.041 510.317 789.469 506.256C792.017 503.237 794.951 502.175 800.747 502.175C807.717 502.175 812.711 503.652 824.128 509.091C836.833 515.143 839.797 515.351 844.958 510.551C847.975 507.745 849.707 502.164 850.119 493.923C850.439 487.493 850.31 486.311 848.937 483.129C846.852 478.295 841.916 473.858 834.962 470.563C820.847 463.876 803.792 461.537 787.607 464.068ZM650.663 507.703C645.665 510.193 642.745 513.317 640.055 519.046C637.608 524.261 636.089 531.929 633.578 551.742C631.324 569.527 631.558 571.894 636.01 576.334C641.432 581.739 652.308 581.848 661.331 576.586C668.323 572.507 675.767 561.43 678.329 551.292C681.295 539.548 681.432 526.294 678.661 518.911C674.391 507.53 661.426 502.34 650.663 507.703Z" fill="white"/>
<path fill-rule="evenodd" clip-rule="evenodd" d="M429.093 380.942C418.94 383.722 407.729 392.858 403.336 401.931C397.337 414.322 397.773 428.5 404.563 441.888C406.078 444.875 407.318 447.726 407.318 448.225C407.318 448.725 404.734 450.409 401.577 451.969C386.867 459.234 376.201 472.873 371.938 489.865C371.33 492.29 369.871 500.765 368.696 508.699C367.522 516.633 366.271 524.979 365.916 527.246C365.561 529.513 364.667 535.85 363.929 541.329C363.19 546.807 362.292 553.299 361.932 555.755C361.573 558.211 360.479 565.784 359.503 572.585C355.873 597.865 354.997 602.467 353.82 602.467C352.49 602.467 309.49 515.915 309.49 513.238C309.49 512.595 310.76 510.847 312.313 509.353C316.737 505.098 356.861 463.357 369.971 449.373C386.077 432.192 388.717 427.916 388.717 419.006C388.717 413.735 387.808 411.656 382.242 404.199C375.729 395.473 374.144 393.961 369.646 392.192C365.932 390.731 364.388 390.595 348.668 390.347C334.676 390.126 330.939 390.273 327.369 391.186C318.879 393.354 316.958 394.977 291.533 421.457C273.894 439.827 269.22 444.469 268.363 444.469C267.159 444.469 267.225 442.764 268.838 431.994C271.133 416.684 270.543 412.879 264.805 406C263.387 404.3 261.566 401.827 260.758 400.505C258.584 396.947 255.157 393.922 251.275 392.133C247.946 390.6 247.207 390.547 229.23 390.545L210.628 390.544L206.017 392.83C197.142 397.229 193.278 403.412 191.022 416.833C190.278 421.265 189.173 427.828 188.568 431.417C187.963 435.007 186.887 441.498 186.175 445.843C185.463 450.188 184.24 457.298 183.457 461.643C182.674 465.988 180.461 478.971 178.54 490.495C175.094 511.155 174.46 514.998 173.16 523.125C172.797 525.392 171.559 532.656 170.408 539.268C169.257 545.88 167.832 554.226 167.241 557.816C166.182 564.252 165.473 568.443 164.131 576.191C163.754 578.364 162.812 584.315 162.036 589.415C161.26 594.516 160.328 599.985 159.964 601.569C157.77 611.133 160.623 623.177 167.2 632.111C170.268 636.277 173.386 638.592 178.349 640.388C181.783 641.631 184.364 641.894 195.715 642.162C211.19 642.526 217.563 641.763 223.862 638.79C228.753 636.481 232.118 632.843 234.633 627.144C236.164 623.675 239.209 609.7 241.582 595.254C242.522 589.531 243.681 582.999 246.396 568.12C246.981 564.908 247.466 562.049 247.474 561.765C247.481 561.482 248.055 561.25 248.749 561.25C249.712 561.25 251.823 564.955 257.653 576.878C261.856 585.474 268.697 599.462 272.856 607.963C283.666 630.06 287.38 635.23 295.022 638.815L298.811 640.593L322.789 640.797L346.767 641.003L350.35 639.367C352.321 638.467 354.916 636.752 356.116 635.555C357.316 634.359 358.517 633.38 358.784 633.38C359.051 633.38 360.495 634.483 361.992 635.832C367.524 640.815 368.19 640.924 393.548 640.984C415.197 641.034 416.337 640.973 419.505 639.577C424.762 637.262 429.246 632.292 430.807 627.049C431.598 624.392 433.039 616.161 434.15 607.963C434.585 604.751 435.229 600.269 435.58 598.002C435.932 595.735 436.554 591.407 436.964 588.385C437.374 585.362 437.983 581.034 438.317 578.767C438.652 576.5 439.274 572.173 439.697 569.15C440.121 566.128 440.741 561.8 441.075 559.533C441.409 557.266 442.009 553.093 442.408 550.259C445.398 529.057 446.164 525.892 449.383 521.46C450.822 519.48 452.764 517.951 455.418 516.711C459.26 514.915 459.631 514.877 475.694 514.665L492.056 514.448V516.527C492.056 517.669 491.601 521.631 491.045 525.33C490.488 529.028 489.09 539.01 487.937 547.511C486.784 556.012 485.223 567.45 484.467 572.928C483.71 578.407 482.777 585.362 482.391 588.385C482.006 591.407 481.233 597.166 480.673 601.181C480.113 605.197 479.655 610.31 479.655 612.543C479.655 623.556 485.713 634.92 493.707 638.903L497.787 640.936H521.193C536.023 640.936 545.513 640.663 547.093 640.191C553.21 638.364 558.927 632.407 560.188 626.549C560.859 623.425 563.213 607.468 565.108 593.193C565.509 590.171 566.118 585.843 566.46 583.576C566.803 581.309 567.425 576.827 567.844 573.615C568.811 566.196 569.778 559.288 570.583 554.037C570.931 551.77 571.541 547.443 571.938 544.42C572.335 541.397 573.25 534.597 573.973 529.307C574.696 524.018 575.64 516.908 576.073 513.507C576.505 510.107 577.208 505.161 577.636 502.516C578.064 499.872 578.415 493.844 578.416 489.121C578.417 481.779 578.187 479.946 576.828 476.478C575.382 472.791 568.578 461.763 565.131 457.521C563.282 455.247 563.349 453.507 565.366 451.377C567.409 449.218 570.862 442.446 572.039 438.287C573.365 433.604 573.204 420.878 571.76 416.249C569.985 410.558 561.492 397.729 556.022 392.475C552.1 388.708 545.864 385.023 541.044 383.625C535.073 381.893 524.083 382.526 518.235 384.938C508.543 388.936 500.432 396.97 496.505 406.463C493.761 413.095 493.31 423.959 495.455 431.755C496.885 436.95 500.375 444.997 502.796 448.676C504.67 451.526 503.771 452.4 497.946 453.393C492.937 454.248 482.284 454.026 477.416 452.965C474.886 452.414 474.998 451.355 478.277 444.814C481.553 438.278 482.776 431.583 482.162 423.554C481.532 415.323 479.707 410.858 472.88 400.844C464.674 388.808 458.185 383.63 447.874 380.894C443.307 379.682 433.605 379.707 429.093 380.942ZM429.363 387.372C423.711 389.191 421.206 390.685 416.822 394.855C409.193 402.111 405.867 409.396 405.772 419.054C405.702 426.272 407.066 430.679 411.034 436.053C421.079 449.659 440.478 452.085 454.551 441.496C471.841 428.485 472.412 403.492 455.693 391.554C448.42 386.36 437.766 384.668 429.363 387.372ZM521.615 390.367C510.934 394.089 502.842 403.86 500.987 415.274C499.066 427.093 505.066 438.783 515.726 443.988C533.658 452.743 554.878 441.242 558.377 420.871C560.433 408.902 554.226 396.847 543.225 391.447C539.313 389.526 537.848 389.195 532.428 389.004C527.268 388.822 525.354 389.064 521.615 390.367ZM614.685 390.798C608.18 392.164 601.547 397.246 598.533 403.178C596.516 407.147 595.687 410.498 594.757 418.444C593.745 427.08 592.055 440.399 590.843 449.278C590.25 453.623 589.481 459.805 589.133 463.017C588.785 466.228 588.057 471.638 587.515 475.038C586.974 478.439 586.205 483.694 585.807 486.716C584.345 497.825 582.291 513.665 581.575 519.346C579.531 535.575 578.715 541.597 576.499 556.785C575.947 560.563 574.693 569.528 573.711 576.707C572.729 583.885 571.471 593.009 570.915 596.982C569.481 607.231 569.609 613.705 571.351 619.012C574.737 629.33 579.711 636.076 586.095 639.01C589.532 640.589 589.612 640.593 626.053 640.813C651.039 640.964 664.523 640.781 668.766 640.234C689 637.626 708.056 627.695 719.495 613.798C721.826 610.967 724.152 608.65 724.664 608.65C725.176 608.65 726.272 610.118 727.098 611.913C729.375 616.861 734.02 623.763 737.271 627.028C744.49 634.277 759.201 640.423 775.55 643.019C787.356 644.894 806.78 643.998 818.608 641.032C830.948 637.94 843.806 629.823 851.631 620.188C865.483 603.13 868.587 577.426 859.118 558.168C856.408 552.656 850.02 543.261 845.993 538.868C844.194 536.904 842.721 534.983 842.721 534.599C842.721 534.215 844.348 533.685 846.338 533.421C851.005 532.8 855.871 530.724 858.104 528.398C862.25 524.081 864.764 514.556 864.766 503.157C864.766 493.977 863.672 490.602 858.393 483.515C856.025 480.336 853.352 476.664 852.452 475.356C845.368 465.051 822.39 456.818 800.794 456.847C770.097 456.889 747.492 469.526 737.594 492.183C736.514 494.655 735.295 496.677 734.885 496.677C734.475 496.677 731.366 492.61 727.976 487.639C720.891 477.248 715.644 471.696 708.524 467.055C697.429 459.825 679.411 455.467 668.803 457.447C666.085 457.954 664.474 457.982 664.019 457.528C663.328 456.839 663.702 453.229 666.187 436.569C666.807 432.413 667.33 425.613 667.351 421.457C667.392 412.993 666.653 410.837 661.602 404.705C660.166 402.962 658.294 400.371 657.444 398.949C655.931 396.421 652.236 393.509 648.098 391.583C645.79 390.51 619.054 389.881 614.685 390.798ZM210.91 397.45C206.755 398.727 202.016 402.964 200.09 407.126C198.95 409.587 196.638 421.841 191.293 453.743C172.634 565.102 166.768 600.446 166.163 605.152C165.396 611.127 166.078 614.461 168.704 617.573C172.369 621.917 173.038 622.045 192.027 622.045C208.688 622.045 209.357 621.993 212.521 620.439C216.565 618.454 220.238 614.278 221.616 610.098C222.721 606.75 224.864 594.887 229.947 563.998L233.055 545.107L239.215 538.951L245.375 532.796L252.012 546.508C255.662 554.05 262.995 569.339 268.307 580.485C285.904 617.406 285.883 617.372 292.611 620.462C295.968 622.005 296.589 622.045 317.068 622.045C336.155 622.045 338.316 621.928 340.653 620.77C345.869 618.184 347.42 612.111 344.559 605.474C343.765 603.631 334.329 584.349 323.591 562.624C312.852 540.899 301.6 517.87 298.585 511.448L293.104 499.771L295.57 497.022C298.701 493.531 336.242 453.796 355.512 433.575C371.276 417.034 373.784 413.53 373.81 408.007C373.831 403.663 371.879 400.617 367.701 398.474C364.311 396.734 364.222 396.726 346.366 396.726H328.435L324.44 398.593C319.602 400.854 319.317 401.135 277.909 444.641C260.379 463.06 245.742 478.13 245.383 478.13C245.024 478.13 244.73 477.917 244.73 477.656C244.73 477.396 247.252 461.76 250.334 442.909C256.545 404.919 256.509 405.723 252.213 400.844C248.827 397 245.483 396.375 228.587 396.431C218.145 396.465 213.186 396.751 210.91 397.45ZM615.969 396.867C614.969 397.021 612.492 398.135 610.464 399.344C607.382 401.18 606.413 402.273 604.56 406.003C602.143 410.871 603.127 404.063 588.168 519.346C586.134 535.026 582.91 558.983 581.004 572.585C575.69 610.517 575.912 608.415 576.824 612.211C577.923 616.776 580.961 619.876 585.714 621.284C588.9 622.227 593.965 622.389 620.405 622.389C653.88 622.389 659.945 621.937 671.587 618.572C694.801 611.865 711.567 595.075 720.634 569.454C724.63 558.163 727.67 539.57 727.67 526.416C727.67 512.407 724.115 496.714 718.911 487.747C714.951 480.923 706.296 472.652 699.914 469.591C684.692 462.291 666.583 461.747 651.65 468.143C648.528 469.48 645.728 470.573 645.426 470.573C645.124 470.573 645.055 469.414 645.272 467.997C645.49 466.581 647.401 452.611 649.52 436.953C652.966 411.474 653.281 408.165 652.514 405.433C651.39 401.431 648.062 398.17 644.083 397.171C641.156 396.437 620.252 396.211 615.969 396.867ZM415.075 453.746C406.708 455.66 397.315 460.752 392.047 466.23C387.829 470.616 382.646 478.741 380.46 484.393C377.673 491.598 376.469 498.417 370.41 541.329C367.557 561.542 364.152 585.18 362.846 593.857C360.052 612.411 359.908 615.994 361.856 618.464C364.745 622.125 367.296 622.49 388.406 622.257L407.662 622.045L410.868 620.166C416.59 616.812 416.133 619.014 426.643 544.077C431.181 511.716 431.795 509.519 438.194 502.697C444.272 496.218 447.601 495.435 470.699 495.046C484.885 494.807 488.419 494.537 492.851 493.36C499.018 491.721 504.377 489.172 508.266 486.027C517.56 478.51 518.509 460.169 509.69 458.519C508.433 458.284 504.202 458.625 500.289 459.278C489.514 461.074 484.222 460.625 450.72 455.067C437.472 452.869 421.494 452.277 415.075 453.746ZM528.225 453.427C526.709 453.79 524.125 454.586 522.482 455.196C519.253 456.396 519.302 456.111 521.362 461.643C522.232 463.983 522.433 466.182 522.186 470.693C521.59 481.554 515.783 490.376 506.204 494.97L501.316 497.314L498.409 518.806C496.809 530.627 494.715 546.017 493.754 553.007C489.257 585.745 486.544 607.87 486.544 611.826C486.544 615.66 486.782 616.428 488.611 618.505C491.72 622.036 494.247 622.393 515.957 622.358C535.961 622.327 538.668 621.995 541.778 619.191C544.963 616.319 545.641 613.445 549.217 587.642C551.15 573.694 553.34 558.301 554.082 553.438C559.071 520.76 564.473 478.734 564.202 474.695C563.782 468.42 561.549 463.701 557.067 459.616C551.863 454.875 547.296 453.27 538.214 452.99C534.236 452.868 529.74 453.064 528.225 453.427ZM787.606 464.066C762.33 468.018 746.547 481.21 741.33 502.746C737.25 519.592 741.069 534.934 751.87 545.094C757.468 550.36 766.878 555.22 781.062 560.17C797.444 565.889 801.377 568.65 801.382 574.442C801.388 580.154 797.919 583.172 790.68 583.751C782.349 584.418 771.496 581.16 759.036 574.251C747.407 567.802 743.156 567.338 738.029 571.957C731.476 577.86 728.048 594.507 731.694 602.725C736.98 614.639 760.537 623.768 785.972 623.76C799.003 623.756 810.238 621.572 819.876 617.173C829.593 612.737 837.222 606.118 842.382 597.648C850.835 583.775 851.991 562.263 844.975 549.405C839.286 538.98 827.771 531.617 804.485 523.516C799.938 521.934 794.881 519.861 793.247 518.908C787.63 515.636 786.041 510.315 789.469 506.254C792.017 503.235 794.951 502.173 800.747 502.173C807.717 502.173 812.711 503.65 824.128 509.088C836.833 515.141 839.797 515.348 844.958 510.549C847.975 507.743 849.707 502.162 850.118 493.921C850.439 487.491 850.31 486.309 848.937 483.127C846.851 478.293 841.916 473.855 834.961 470.561C820.847 463.874 803.792 461.534 787.606 464.066ZM650.662 507.701C645.665 510.191 642.745 513.314 640.055 519.044C637.608 524.259 636.089 531.927 633.578 551.739C631.324 569.525 631.558 571.892 636.01 576.332C641.432 581.737 652.308 581.846 661.33 576.584C668.323 572.505 675.767 561.428 678.328 551.29C681.295 539.546 681.431 526.292 678.661 518.909C674.391 507.528 661.426 502.338 650.662 507.701ZM662.66 525.818C661.197 526.355 659.083 527.669 657.962 528.738C653.277 533.206 652.133 536.724 649.84 553.694C649.049 559.55 648.085 566.122 647.697 568.299C647.309 570.475 647.182 572.562 647.414 572.936C648.189 574.185 652.684 573.634 656.265 571.848C662.283 568.849 666.411 564.015 669.614 556.216C674.147 545.181 675.215 529.273 671.624 526.301C670.107 525.045 665.448 524.794 662.66 525.818ZM741.884 553.546C741.7 553.842 741.332 556.006 741.066 558.355L740.581 562.624H745.148C747.875 562.624 749.715 562.334 749.715 561.904C749.715 561.507 748.414 559.343 746.824 557.095C744.127 553.282 742.689 552.249 741.884 553.546Z" fill="black"/>
</svg>
