<svg width="264" height="92" viewBox="0 0 264 92" fill="none" xmlns="http://www.w3.org/2000/svg">
<path fill-rule="evenodd" clip-rule="evenodd" d="M101.459 0.492696C99.2829 1.19607 98.3184 1.77407 96.6302 3.38641C93.6926 6.19221 92.4119 9.0089 92.3755 12.7433C92.3485 15.5345 92.8737 17.2385 94.4014 19.3167C98.2693 24.5777 105.739 25.5159 111.158 21.4213C117.815 16.3901 118.035 6.72612 111.597 2.10982C108.797 0.101695 104.694 -0.552539 101.459 0.492696ZM136.981 1.65108C132.868 3.09024 129.752 6.86849 129.038 11.2819C128.298 15.8519 130.609 20.3723 134.713 22.3847C141.618 25.7701 149.789 21.323 151.136 13.4462C151.928 8.81792 149.537 4.15646 145.302 2.06838C143.795 1.32569 143.231 1.19766 141.144 1.12409C139.157 1.0537 138.42 1.14719 136.981 1.65108ZM17.3439 4.38994C15.7437 4.88347 13.9192 6.52185 13.1775 8.13128C12.7387 9.08301 11.8485 13.821 9.79025 26.1569C2.60562 69.2165 0.346831 82.8832 0.113922 84.703C-0.181326 87.0134 0.0810274 88.3025 1.09224 89.5058C2.50376 91.1856 2.76107 91.235 10.073 91.235C16.4884 91.235 16.7459 91.2148 17.9641 90.6139C19.5212 89.8463 20.9354 88.2316 21.4659 86.6155C21.8904 85.323 22.7082 80.7803 24.6752 68.7897L25.8732 61.485L28.0476 59.2936C29.2434 58.0882 30.356 57.1022 30.5197 57.1022C30.6833 57.1022 32.8848 61.4353 35.4118 66.7311C43.9849 84.6985 45.9176 88.5591 46.7074 89.2949C47.1305 89.6888 48.0732 90.2864 48.8027 90.623C50.0954 91.2196 50.3344 91.235 58.2199 91.235C65.5695 91.235 66.4014 91.1898 67.3012 90.742C68.6156 90.0875 69.3613 88.8385 69.3613 87.2915C69.3613 85.8221 68.0283 82.8479 61.6586 70.1027C56.6739 60.1287 49.962 46.2243 49.4564 44.8245C49.1216 43.8972 49.141 43.826 49.9957 42.8455C50.992 41.7028 64.4206 27.4231 73.0229 18.3584C79.0928 11.9624 80.0584 10.6074 80.0685 8.47207C80.0764 6.79226 79.3249 5.61448 77.7163 4.78573C76.4107 4.1129 76.3764 4.10998 69.5011 4.10998H62.5969L61.0586 4.83168C59.1953 5.70585 59.0544 5.84583 43.2697 22.5045C36.5907 29.5537 30.9454 35.3209 30.725 35.3209C30.4295 35.3209 30.3621 35.1289 30.4687 34.5905C30.5483 34.1888 31.5293 28.2035 32.6482 21.2901C34.9046 7.35167 34.8959 7.58222 33.2475 5.70213C31.9439 4.21569 30.656 3.97424 24.1505 3.99576C20.1298 4.00904 18.2201 4.11953 17.3439 4.38994ZM173.312 4.16443C172.927 4.22393 171.973 4.65451 171.192 5.12201C170.005 5.83202 169.632 6.25463 168.919 7.69698C167.988 9.57946 168.367 6.94685 162.607 51.524C161.824 57.5869 160.582 66.8506 159.849 72.11C157.802 86.7773 157.888 85.9647 158.239 87.4326C158.662 89.1974 159.832 90.3964 161.662 90.9407C162.889 91.3054 164.839 91.3678 175.02 91.3678C187.909 91.3678 190.245 91.193 194.728 89.892C203.666 87.2984 210.122 80.8063 213.613 70.8995C215.152 66.5334 216.322 59.344 216.322 54.2576C216.322 48.8407 214.953 42.7725 212.95 39.3053C211.425 36.6668 208.092 33.4684 205.635 32.2848C199.774 29.462 192.801 29.2519 187.051 31.7249C185.849 32.2418 184.77 32.6647 184.654 32.6647C184.538 32.6647 184.511 32.2166 184.595 31.6686C184.679 31.1209 185.415 25.7191 186.23 19.6647C187.557 9.81268 187.679 8.53316 187.383 7.47677C186.951 5.92924 185.669 4.66832 184.137 4.28184C183.01 3.99788 174.961 3.91049 173.312 4.16443ZM95.9575 26.1579C92.7358 26.8982 89.119 28.867 87.0905 30.9854C85.4665 32.6811 83.4706 35.823 82.6289 38.0082C81.5559 40.7944 81.0924 43.431 78.7594 60.024C77.6606 67.8401 76.3496 76.9802 75.8467 80.3353C74.771 87.5099 74.7156 88.8954 75.4655 89.8503C76.5778 91.2661 77.5603 91.4071 85.6885 91.3171L93.1032 91.235L94.3377 90.5082C96.5408 89.2114 96.3649 90.063 100.412 61.0865C102.159 48.5735 102.396 47.724 104.859 45.0861C107.2 42.581 108.482 42.2779 117.376 42.1276C122.838 42.0351 124.199 41.931 125.905 41.4757C128.28 40.8419 130.343 39.8562 131.841 38.6402C135.419 35.7337 135.785 28.6415 132.389 28.0035C131.905 27.9126 130.276 28.0447 128.769 28.297C124.62 28.9916 122.583 28.8179 109.683 26.669C104.581 25.819 98.429 25.59 95.9575 26.1579ZM139.526 26.0347C138.942 26.1749 137.947 26.4828 137.314 26.7186C136.071 27.1827 136.09 27.0725 136.883 29.2115C137.218 30.1163 137.296 30.9668 137.2 32.7109C136.971 36.9107 134.735 40.3218 131.047 42.0983L129.165 43.0047L128.045 51.315C127.429 55.8859 126.623 61.8369 126.253 64.5397C124.521 77.1986 123.477 85.7538 123.477 87.2836C123.477 88.766 123.568 89.063 124.272 89.866C125.47 91.2315 126.443 91.3694 134.802 91.3561C142.505 91.3439 143.547 91.2156 144.744 90.1313C145.971 89.0207 146.232 87.9094 147.609 77.9322C148.353 72.5387 149.196 66.5869 149.482 64.7062C151.403 52.0707 153.483 35.8203 153.379 34.2584C153.217 31.8322 152.357 30.0074 150.631 28.4279C148.628 26.5946 146.869 25.9738 143.372 25.8657C141.84 25.8184 140.109 25.8944 139.526 26.0347ZM239.401 30.1484C229.668 31.6765 223.591 36.7776 221.582 45.1052C220.011 51.6189 221.481 57.5513 225.64 61.4799C227.796 63.5162 231.419 65.3952 236.881 67.3096C243.189 69.5207 244.703 70.5885 244.705 72.828C244.707 75.0369 243.372 76.2038 240.584 76.4277C237.376 76.6856 233.198 75.4258 228.4 72.7541C223.922 70.2607 222.285 70.0811 220.311 71.8672C217.788 74.1497 216.468 80.5869 217.872 83.7645C219.907 88.3713 228.978 91.9012 238.771 91.898C243.789 91.8964 248.115 91.0522 251.826 89.3509C255.568 87.6358 258.505 85.0765 260.492 81.8013C263.747 76.4367 264.192 68.1187 261.49 63.1467C259.3 59.1159 254.866 56.2689 245.9 53.1364C244.149 52.5247 242.202 51.723 241.572 51.3546C239.41 50.0891 238.798 48.0319 240.118 46.4615C241.099 45.2941 242.229 44.8834 244.46 44.8834C247.144 44.8834 249.067 45.4545 253.463 47.5575C258.355 49.8979 259.497 49.9781 261.484 48.1222C262.646 47.0374 263.313 44.8792 263.471 41.6927C263.594 39.2062 263.545 38.7493 263.016 37.519C262.213 35.6498 260.313 33.9338 257.635 32.6599C252.2 30.0743 245.633 29.1696 239.401 30.1484ZM186.67 47.0209C184.746 47.9838 183.622 49.1916 182.586 51.4072C181.644 53.4235 181.059 56.3887 180.092 64.0496C179.224 70.9269 179.314 71.842 181.029 73.5587C183.116 75.6489 187.304 75.6909 190.778 73.6562C193.471 72.0792 196.337 67.796 197.323 63.8756C198.465 59.3347 198.518 54.2098 197.451 51.3548C195.807 46.954 190.815 44.9472 186.67 47.0209Z" fill="#2D54FF"/>
</svg>
