<svg xmlns="http://www.w3.org/2000/svg" viewBox="42.5 78.5 189.5 53" fill="none">
  <g fill="currentColor">
    <g transform="translate(3.4439101,23.414696)">
      <path
        fill="currentColor"
        style="stroke-width:0.533901"
        d="m 48.473761,107.43392 c -4.393564,-0.6243 -8.015174,-4.54577 -8.743933,-8.565658 -0.333518,-1.839704 -0.268672,-22.34961 0.07793,-24.649103 0.690377,-4.580205 2.814648,-8.734656 6.194383,-12.114391 3.342349,-3.342351 7.41276,-5.442027 11.988378,-6.184068 7.099661,-1.151378 14.029802,1.09133 19.128899,6.190427 3.43218,3.43218 5.502331,7.474517 6.200748,12.108032 1.081319,7.173859 -1.12101,13.923152 -6.200748,19.002885 -3.955263,3.955269 -8.58561,6.048458 -14.27615,6.453657 -1.239902,0.08829 -1.728099,0.123225 -1.831612,0.328009 -0.07855,0.15539 -0.43508,0.93639 -0.765649,1.64228 -0.691828,1.47732 -2.370355,3.37632 -3.78895,4.28664 -1.625382,1.043 -3.227596,1.52176 -5.346422,1.59758 -1.035915,0.0371 -2.140885,0.006 -2.555252,-0.0847 z m 4.809282,-13.333946 c 0.604444,-0.595652 2.298956,-2.354357 3.765583,-3.908226 1.466626,-1.553875 2.84948,-2.928167 3.073008,-3.053986 0.290498,-0.163513 1.883727,-0.230864 5.585991,-0.236139 4.794932,-0.0068 5.224274,-0.03465 5.781447,-0.374366 0.957405,-0.583767 1.029658,-1.138265 0.963817,-7.396961 l -0.0589,-5.599351 -0.529942,-0.434685 c -0.281185,-0.230642 -2.475324,-1.854665 -4.997417,-3.517989 -3.915414,-2.582226 -4.691063,-3.024232 -5.307046,-3.024232 -0.616453,0 -1.388003,0.440612 -5.30266,3.028193 -2.51968,1.665509 -4.773489,3.29431 -5.032468,3.547544 l -0.490511,0.401505 -0.05176,10.35887 -0.05176,10.358867 0.02098,0.707131 c 0.01077,0.363064 0.887186,0.435477 1.23549,0.264855 0.09057,-0.04437 0.269057,-0.157105 0.520268,-0.34948 0.257,-0.196808 0.570215,-0.470331 0.87588,-0.77155 z"
      />
    </g>
    <path
      fill="currentColor"
      style="stroke-width:0.264583"
      aria-label="propsynk"
      d="m 104.48937,97.729262 q 0.80962,-1.139472 2.21897,-1.889125 1.43933,-0.779638 3.26849,-0.779638 2.12901,0 3.83822,1.049513 1.73919,1.049514 2.72873,2.99861 1.01953,1.919108 1.01953,4.467928 0,2.54882 -1.01953,4.5279 -0.98954,1.9491 -2.72873,3.0286 -1.70921,1.0795 -3.83822,1.0795 -1.82916,0 -3.2385,-0.74965 -1.37936,-0.74966 -2.24896,-1.88913 V 119.859 h -4.19805 V 95.330374 h 4.19805 z m 8.78593,5.847288 q 0,-1.4993 -0.62971,-2.5788 -0.59972,-1.109489 -1.61925,-1.679225 -0.98954,-0.569736 -2.159,-0.569736 -1.13947,0 -2.159,0.599722 -0.98954,0.569736 -1.61925,1.679219 -0.59972,1.10949 -0.59972,2.60879 0,1.49931 0.59972,2.60879 0.62971,1.10949 1.61925,1.70921 1.01953,0.56974 2.159,0.56974 1.16946,0 2.159,-0.59972 1.01953,-0.59973 1.61925,-1.70921 0.62971,-1.10949 0.62971,-2.63878 z m 10.12117,-5.667372 q 0.80962,-1.319388 2.09903,-2.069041 1.31939,-0.749652 2.99861,-0.749652 v 4.407957 h -1.10949 q -1.97908,0 -2.99861,0.929568 -0.98954,0.92957 -0.98954,3.2385 v 8.27616 h -4.19805 V 95.330374 h 4.19805 z m 13.86943,14.303372 q -2.39889,0 -4.318,-1.04952 -1.91911,-1.0795 -3.02859,-3.02859 -1.0795,-1.9491 -1.0795,-4.49792 0,-2.54882 1.10948,-4.497912 1.13947,-1.949096 3.08857,-2.99861 1.9491,-1.079499 4.34798,-1.079499 2.39889,0 4.34799,1.079499 1.94909,1.049514 3.05858,2.99861 1.13947,1.949092 1.13947,4.497912 0,2.54882 -1.16946,4.49792 -1.13947,1.94909 -3.11855,3.02859 -1.9491,1.04952 -4.37797,1.04952 z m 0,-3.65831 q 1.13947,0 2.12901,-0.53975 1.01953,-0.56973 1.61925,-1.67922 0.59972,-1.10948 0.59972,-2.69875 0,-2.3689 -1.25941,-3.62831 -1.22943,-1.289407 -3.0286,-1.289407 -1.79916,0 -3.02859,1.289407 -1.19945,1.25941 -1.19945,3.62831 0,2.36891 1.16946,3.65831 1.19944,1.25941 2.99861,1.25941 z m 14.52916,-10.824978 q 0.80962,-1.139472 2.21897,-1.889125 1.43933,-0.779638 3.26849,-0.779638 2.12901,0 3.83822,1.049513 1.73919,1.049514 2.72873,2.99861 1.01953,1.919108 1.01953,4.467928 0,2.54882 -1.01953,4.5279 -0.98954,1.9491 -2.72873,3.0286 -1.70921,1.0795 -3.83822,1.0795 -1.82916,0 -3.2385,-0.74965 -1.37936,-0.74966 -2.24896,-1.88913 V 119.859 h -4.19805 V 95.330374 h 4.19805 z m 8.78593,5.847288 q 0,-1.4993 -0.62971,-2.5788 -0.59972,-1.109489 -1.61925,-1.679225 -0.98954,-0.569736 -2.159,-0.569736 -1.13947,0 -2.159,0.599722 -0.98954,0.569736 -1.61925,1.679219 -0.59972,1.10949 -0.59972,2.60879 0,1.49931 0.59972,2.60879 0.62971,1.10949 1.61925,1.70921 1.01953,0.56974 2.159,0.56974 1.16946,0 2.159,-0.59972 1.01953,-0.59973 1.61925,-1.70921 0.62971,-1.10949 0.62971,-2.63878 z m 12.28017,8.636 q -2.03905,0 -3.6583,-0.71967 -1.61925,-0.74965 -2.57881,-2.00907 -0.92957,-1.25941 -1.01953,-2.7887 h 4.22804 q 0.11995,0.95955 0.92957,1.58926 0.83961,0.62971 2.06904,0.62971 1.19945,0 1.85914,-0.47978 0.68968,-0.47978 0.68968,-1.22943 0,-0.80963 -0.83961,-1.19944 -0.80962,-0.41981 -2.60879,-0.89959 -1.85914,-0.44979 -3.05858,-0.92957 -1.16946,-0.47977 -2.03906,-1.46932 -0.83961,-0.98954 -0.83961,-2.66876 0,-1.379359 0.77964,-2.518831 0.80963,-1.139472 2.27895,-1.799166 1.4993,-0.659694 3.50837,-0.659694 2.96862,0 4.7378,1.499305 1.76918,1.469319 1.9491,3.988156 h -4.01814 q -0.09,-0.989546 -0.83961,-1.559282 -0.71967,-0.599722 -1.9491,-0.599722 -1.13947,0 -1.76918,0.419805 -0.59972,0.419806 -0.59972,1.169458 0,0.839611 0.83961,1.289401 0.83961,0.41981 2.60879,0.8696 1.79917,0.44979 2.96863,0.92957 1.16946,0.47977 2.00907,1.4993 0.86959,0.98954 0.89958,2.63878 0,1.43933 -0.80962,2.5788 -0.77964,1.13948 -2.27895,1.79917 -1.46932,0.62971 -3.4484,0.62971 z m 24.45455,-16.882176 -10.28523,24.468656 h -4.46793 l 3.59833,-8.27616 -6.65692,-16.192496 h 4.70782 l 4.28801,11.604616 4.34799,-11.604616 z m 10.03121,-0.239889 q 2.96863,0 4.79778,1.889124 1.82915,1.859138 1.82915,5.217581 v 9.74548 h -4.19805 v -9.17574 q 0,-1.97909 -0.98954,-3.0286 -0.98954,-1.079499 -2.69875,-1.079499 -1.7392,0 -2.75872,1.079499 -0.98954,1.04951 -0.98954,3.0286 v 9.17574 h -4.19806 V 95.330374 h 4.19806 v 2.069041 q 0.83961,-1.0795 2.12901,-1.679222 1.31939,-0.629708 2.87866,-0.629708 z m 19.02704,16.852185 -5.63738,-7.07672 v 7.07672 h -4.19806 V 89.752959 h 4.19806 v 12.624151 l 5.57741,-7.046736 h 5.45747 l -7.31661,8.336136 7.37658,8.27616 z"
    />
  </g>
</svg>
