<svg width="318" height="318" viewBox="0 0 318 318" fill="none" xmlns="http://www.w3.org/2000/svg">
<rect width="318" height="318" rx="48" fill="#1A1A1A"/>
<path d="M72.4613 59C64.4735 59 58 65.4607 58 73.4327V244.567C58 252.539 64.4735 259 72.4613 259C80.4491 259 86.9226 252.539 86.9226 244.567V73.4327C86.9226 65.4607 80.4491 59 72.4613 59Z" fill="#FFFFE9"/>
<path d="M159.349 91.7148C151.361 91.7148 144.888 98.1756 144.888 106.148V210.496C144.888 218.467 151.361 224.929 159.349 224.929C167.337 224.929 173.81 218.467 173.81 210.496V106.148C173.81 98.1756 167.337 91.7148 159.349 91.7148Z" fill="#FFFFE9"/>
<path d="M115.908 150.604C107.92 150.604 101.446 157.064 101.446 165.036V224.522C101.446 232.494 107.92 238.955 115.908 238.955C123.895 238.955 130.369 232.494 130.369 224.522V165.036C130.369 157.064 123.895 150.604 115.908 150.604Z" fill="#FFFFE9"/>
<path d="M246.235 59C238.246 59 231.773 65.4607 231.773 73.4327V244.567C231.773 252.539 238.246 259 246.235 259C254.222 259 260.696 252.539 260.696 244.567V73.4327C260.696 65.4607 254.222 59 246.235 59Z" fill="#FFFFE9"/>
<path d="M202.794 150.604C194.805 150.604 188.333 157.064 188.333 165.036V224.522C188.333 232.494 194.805 238.955 202.794 238.955C210.781 238.955 217.255 232.494 217.255 224.522V165.036C217.255 157.064 210.781 150.604 202.794 150.604Z" fill="#FFFFE9"/>
</svg>
